<svg baseProfile="full" height="200" version="1.1" width="800" xmlns="http://www.w3.org/2000/svg" xmlns:ev="http://www.w3.org/2001/xml-events" xmlns:xlink="http://www.w3.org/1999/xlink"><defs><style type="text/css"><![CDATA[.background path {fill: #808080; fill-opacity: 0}.background path:nth-child(odd) {fill-opacity: .1}.axes {font-size: 14px}.x-axis .tick .lab {font-weight: bold; dominant-baseline: hanging}.axes, .tree {font-size: 14px; text-anchor: middle}.axes line, .edge {stroke: black; fill: none}.axes .ax-skip {stroke-dasharray: 4}.y-axis .grid {stroke: #FAFAFA}.node > .sym {fill: black; stroke: none}.site > .sym {stroke: black}.mut text {fill: red; font-style: italic}.mut.extra text {fill: hotpink}.mut line {fill: none; stroke: none}.mut .sym {fill: none; stroke: red}.mut.extra .sym {stroke: hotpink}.node .mut .sym {stroke-width: 1.5px}.tree text, .tree-sequence text {dominant-baseline: central}.plotbox .lab.lft {text-anchor: end}.plotbox .lab.rgt {text-anchor: start}]]></style></defs><g class="tree-sequence"><g class="background"><path d="M56.8,0 l180.8,0 l0,138.2 l36.8832,25 l0,5 l-217.683,0 l0,-5 l0,-25 l0,-138.2z" /><path d="M237.6,0 l180.8,0 l0,138.2 l124.68,25 l0,5 l-268.596,0 l0,-5 l-36.883,-25 l0,-138.2z" /><path d="M418.4,0 l180.8,0 l0,138.2 l18.3693,25 l0,5 l-74.4896,0 l0,-5 l-124.68,-25 l0,-138.2z" /><path d="M599.2,0 l180.8,0 l0,138.2 l0,25 l0,5 l-162.431,0 l0,-5 l-18.369,-25 l0,-138.2z" /></g><g class="axes"><g class="x-axis"><g class="title" transform="translate(418.4 200)"><text class="lab" text-anchor="middle" transform="translate(0 -11)">Genome position</text></g><line class="ax-line" x1="56.8" x2="780" y1="163.2" y2="163.2" /><g class="ticks"><g class="tick" transform="translate(56.8 163.2)"><line x1="0" x2="0" y1="0" y2="5" /><g transform="translate(0 6)"><text class="lab">0</text></g></g><g class="tick" transform="translate(274.483 163.2)"><line x1="0" x2="0" y1="0" y2="5" /><g transform="translate(0 6)"><text class="lab">3010</text></g></g><g class="tick" transform="translate(543.08 163.2)"><line x1="0" x2="0" y1="0" y2="5" /><g transform="translate(0 6)"><text class="lab">6724</text></g></g><g class="tick" transform="translate(617.569 163.2)"><line x1="0" x2="0" y1="0" y2="5" /><g transform="translate(0 6)"><text class="lab">7754</text></g></g></g><g class="site s0" transform="translate(84.2816 163.2)"><line class="sym" x1="0" x2="0" y1="0" y2="-10" /><g class="mut m0"><polyline class="sym" points="2.5,-6.5 0,-1.5 -2.5,-6.5" /></g></g><g class="site s1" transform="translate(272.314 163.2)"><line class="sym" x1="0" x2="0" y1="0" y2="-10" /><g class="mut m1"><polyline class="sym" points="2.5,-6.5 0,-1.5 -2.5,-6.5" /></g></g><g class="site s2" transform="translate(304.641 163.2)"><line class="sym" x1="0" x2="0" y1="0" y2="-10" /><g class="mut m2"><polyline class="sym" points="2.5,-6.5 0,-1.5 -2.5,-6.5" /></g></g><g class="site s3" transform="translate(569.693 163.2)"><line class="sym" x1="0" x2="0" y1="0" y2="-10" /><g class="mut m3"><polyline class="sym" points="2.5,-6.5 0,-1.5 -2.5,-6.5" /></g></g></g><g class="y-axis"><g class="title" transform="translate(0 65.7)"><text class="lab" text-anchor="middle" transform="translate(11) rotate(-90)">Time (generations)</text></g><line class="ax-line" x1="56.8" x2="56.8" y1="121.4" y2="10" /><g class="ticks"><g class="tick" transform="translate(56.8 121.4)"><line x1="0" x2="-5" y1="0" y2="0" /><g transform="translate(-6 0)"><text class="lab" text-anchor="end">0.00</text></g></g><g class="tick" transform="translate(56.8 117.06)"><line x1="0" x2="-5" y1="0" y2="0" /><g transform="translate(-6 0)"><text class="lab" text-anchor="end">466.96</text></g></g><g class="tick" transform="translate(56.8 114.327)"><line x1="0" x2="-5" y1="0" y2="0" /><g transform="translate(-6 0)"><text class="lab" text-anchor="end">760.98</text></g></g><g class="tick" transform="translate(56.8 113.316)"><line x1="0" x2="-5" y1="0" y2="0" /><g transform="translate(-6 0)"><text class="lab" text-anchor="end">869.77</text></g></g><g class="tick" transform="translate(56.8 102.5)"><line x1="0" x2="-5" y1="0" y2="0" /><g transform="translate(-6 0)"><text class="lab" text-anchor="end">2033.43</text></g></g><g class="tick" transform="translate(56.8 98.3915)"><line x1="0" x2="-5" y1="0" y2="0" /><g transform="translate(-6 0)"><text class="lab" text-anchor="end">2475.45</text></g></g><g class="tick" transform="translate(56.8 94.8064)"><line x1="0" x2="-5" y1="0" y2="0" /><g transform="translate(-6 0)"><text class="lab" text-anchor="end">2861.18</text></g></g><g class="tick" transform="translate(56.8 90.0242)"><line x1="0" x2="-5" y1="0" y2="0" /><g transform="translate(-6 0)"><text class="lab" text-anchor="end">3375.68</text></g></g><g class="tick" transform="translate(56.8 86.3507)"><line x1="0" x2="-5" y1="0" y2="0" /><g transform="translate(-6 0)"><text class="lab" text-anchor="end">3770.91</text></g></g><g class="tick" transform="translate(56.8 84.716)"><line x1="0" x2="-5" y1="0" y2="0" /><g transform="translate(-6 0)"><text class="lab" text-anchor="end">3946.79</text></g></g><g class="tick" transform="translate(56.8 80.9304)"><line x1="0" x2="-5" y1="0" y2="0" /><g transform="translate(-6 0)"><text class="lab" text-anchor="end">4354.07</text></g></g><g class="tick" transform="translate(56.8 68.95)"><line x1="0" x2="-5" y1="0" y2="0" /><g transform="translate(-6 0)"><text class="lab" text-anchor="end">5643.03</text></g></g><g class="tick" transform="translate(56.8 26.8)"><line x1="0" x2="-5" y1="0" y2="0" /><g transform="translate(-6 0)"><text class="lab" text-anchor="end">10177.90</text></g></g></g></g></g><g class="plotbox trees"><g class="tree t-1" transform="translate(56.8 0)"><g class="plotbox"><g class="c2 node n9064 p0 root" transform="translate(131.32 26.8)"><g class="a9064 i3 leaf m1 node n7 p0 s1 sample" transform="translate(22.44 94.6)"><path class="edge" d="M 0 0 V -94.6 H -22.44" /><g class="mut m1 s1" transform="translate(0 -36.3936)"><line x1="0" x2="0" y1="0" y2="36.3936" /><path class="sym" d="M -3,-3 l 6,6 M -3,3 l 6,-6" /><text class="lab rgt" transform="translate(5 0)">1</text></g><rect class="sym" height="6" width="6" x="-3" y="-3" /><text class="lab" transform="translate(0 11)">7</text></g><g class="a9064 c2 node n6311 p0" transform="translate(-22.44 42.15)"><g class="a6311 c2 node n2587 p0" transform="translate(23.76 33.55)"><g class="a2587 i0 leaf node n1 p0 sample" transform="translate(-7.04 18.9)"><path class="edge" d="M 0 0 V -18.9 H 7.04" /><rect class="sym" height="6" width="6" x="-3" y="-3" /><text class="lab" transform="translate(0 11)">1</text></g><g class="a2587 i2 leaf node n5 p0 sample" transform="translate(7.04 18.9)"><path class="edge" d="M 0 0 V -18.9 H -7.04" /><rect class="sym" height="6" width="6" x="-3" y="-3" /><text class="lab" transform="translate(0 11)">5</text></g><path class="edge" d="M 0 0 V -33.55 H -23.76" /><circle class="sym" cx="0" cy="0" r="3" /><text class="lab rgt" transform="translate(3 -7.0)">2587</text></g><g class="a6311 c2 node n4662 p0" transform="translate(-23.76 17.4007)"><g class="a4662 c2 node n3624 p0" transform="translate(19.36 8.45565)"><g class="a3624 i2 leaf node n4 p0 sample" transform="translate(-7.04 26.5936)"><path class="edge" d="M 0 0 V -26.5936 H 7.04" /><rect class="sym" height="6" width="6" x="-3" y="-3" /><text class="lab" transform="translate(0 11)">4</text></g><g class="a3624 i4 leaf node n8 p0 sample" transform="translate(7.04 26.5936)"><path class="edge" d="M 0 0 V -26.5936 H -7.04" /><rect class="sym" height="6" width="6" x="-3" y="-3" /><text class="lab" transform="translate(0 11)">8</text></g><path class="edge" d="M 0 0 V -8.45565 H -19.36" /><circle class="sym" cx="0" cy="0" r="3" /><text class="lab rgt" transform="translate(3 -7.0)">3624</text></g><g class="a4662 c2 node n4199 p0" transform="translate(-19.36 3.67351)"><g class="a4199 i1 leaf m0 node n3 p0 s0 sample" transform="translate(17.6 31.3758)"><path class="edge" d="M 0 0 V -31.3758 H -17.6" /><g class="mut m0 s0" transform="translate(0 -11.5218)"><line x1="0" x2="0" y1="0" y2="11.5218" /><path class="sym" d="M -3,-3 l 6,6 M -3,3 l 6,-6" /><text class="lab rgt" transform="translate(5 0)">0</text></g><rect class="sym" height="6" width="6" x="-3" y="-3" /><text class="lab" transform="translate(0 11)">3</text></g><g class="a4199 c2 node n911 p0" transform="translate(-17.6 23.2915)"><g class="a911 c2 node n379 p0" transform="translate(14.08 3.74396)"><g class="a379 i1 leaf node n2 p0 sample" transform="translate(-7.04 4.34027)"><path class="edge" d="M 0 0 V -4.34027 H 7.04" /><rect class="sym" height="6" width="6" x="-3" y="-3" /><text class="lab" transform="translate(0 11)">2</text></g><g class="a379 i3 leaf node n6 p0 sample" transform="translate(7.04 4.34027)"><path class="edge" d="M 0 0 V -4.34027 H -7.04" /><rect class="sym" height="6" width="6" x="-3" y="-3" /><text class="lab" transform="translate(0 11)">6</text></g><path class="edge" d="M 0 0 V -3.74396 H -14.08" /><circle class="sym" cx="0" cy="0" r="3" /><text class="lab rgt" transform="translate(3 -7.0)">379</text></g><g class="a911 c2 node n763 p0" transform="translate(-14.08 1.01115)"><g class="a763 i0 leaf node n0 p0 sample" transform="translate(-7.04 7.07307)"><path class="edge" d="M 0 0 V -7.07307 H 7.04" /><rect class="sym" height="6" width="6" x="-3" y="-3" /><text class="lab" transform="translate(0 11)">0</text></g><g class="a763 i4 leaf node n9 p0 sample" transform="translate(7.04 7.07307)"><path class="edge" d="M 0 0 V -7.07307 H -7.04" /><rect class="sym" height="6" width="6" x="-3" y="-3" /><text class="lab" transform="translate(0 11)">9</text></g><path class="edge" d="M 0 0 V -1.01115 H 14.08" /><circle class="sym" cx="0" cy="0" r="3" /><text class="lab lft" transform="translate(-3 -7.0)">763</text></g><path class="edge" d="M 0 0 V -23.2915 H 17.6" /><circle class="sym" cx="0" cy="0" r="3" /><text class="lab lft" transform="translate(-3 -7.0)">911</text></g><path class="edge" d="M 0 0 V -3.67351 H 19.36" /><circle class="sym" cx="0" cy="0" r="3" /><text class="lab lft" transform="translate(-3 -7.0)">4199</text></g><path class="edge" d="M 0 0 V -17.4007 H 23.76" /><circle class="sym" cx="0" cy="0" r="3" /><text class="lab lft" transform="translate(-3 -7.0)">4662</text></g><path class="edge" d="M 0 0 V -42.15 H 22.44" /><circle class="sym" cx="0" cy="0" r="3" /><text class="lab lft" transform="translate(-3 -7.0)">6311</text></g><circle class="sym" cx="0" cy="0" r="3" /><text class="lab" transform="translate(0 -11)">9064</text></g></g></g><g class="tree t0" transform="translate(237.6 0)"><g class="plotbox"><g class="c2 node n9064 p0 root" transform="translate(131.32 26.8)"><g class="a9064 i3 leaf node n7 p0 sample" transform="translate(22.44 94.6)"><path class="edge" d="M 0 0 V -94.6 H -22.44" /><rect class="sym" height="6" width="6" x="-3" y="-3" /><text class="lab" transform="translate(0 11)">7</text></g><g class="a9064 c2 m2 node n5225 p0 s2" transform="translate(-22.44 54.1304)"><g class="a5225 c2 node n2587 p0" transform="translate(23.76 21.5696)"><g class="a2587 i0 leaf node n1 p0 sample" transform="translate(-7.04 18.9)"><path class="edge" d="M 0 0 V -18.9 H 7.04" /><rect class="sym" height="6" width="6" x="-3" y="-3" /><text class="lab" transform="translate(0 11)">1</text></g><g class="a2587 i2 leaf node n5 p0 sample" transform="translate(7.04 18.9)"><path class="edge" d="M 0 0 V -18.9 H -7.04" /><rect class="sym" height="6" width="6" x="-3" y="-3" /><text class="lab" transform="translate(0 11)">5</text></g><path class="edge" d="M 0 0 V -21.5696 H -23.76" /><circle class="sym" cx="0" cy="0" r="3" /><text class="lab rgt" transform="translate(3 -7.0)">2587</text></g><g class="a5225 c2 node n4662 p0" transform="translate(-23.76 5.42033)"><g class="a4662 c2 node n3624 p0" transform="translate(19.36 8.45565)"><g class="a3624 i2 leaf node n4 p0 sample" transform="translate(-7.04 26.5936)"><path class="edge" d="M 0 0 V -26.5936 H 7.04" /><rect class="sym" height="6" width="6" x="-3" y="-3" /><text class="lab" transform="translate(0 11)">4</text></g><g class="a3624 i4 leaf node n8 p0 sample" transform="translate(7.04 26.5936)"><path class="edge" d="M 0 0 V -26.5936 H -7.04" /><rect class="sym" height="6" width="6" x="-3" y="-3" /><text class="lab" transform="translate(0 11)">8</text></g><path class="edge" d="M 0 0 V -8.45565 H -19.36" /><circle class="sym" cx="0" cy="0" r="3" /><text class="lab rgt" transform="translate(3 -7.0)">3624</text></g><g class="a4662 c2 node n4199 p0" transform="translate(-19.36 3.67351)"><g class="a4199 i1 leaf node n3 p0 sample" transform="translate(17.6 31.3758)"><path class="edge" d="M 0 0 V -31.3758 H -17.6" /><rect class="sym" height="6" width="6" x="-3" y="-3" /><text class="lab" transform="translate(0 11)">3</text></g><g class="a4199 c2 node n911 p0" transform="translate(-17.6 23.2915)"><g class="a911 c2 node n379 p0" transform="translate(14.08 3.74396)"><g class="a379 i1 leaf node n2 p0 sample" transform="translate(-7.04 4.34027)"><path class="edge" d="M 0 0 V -4.34027 H 7.04" /><rect class="sym" height="6" width="6" x="-3" y="-3" /><text class="lab" transform="translate(0 11)">2</text></g><g class="a379 i3 leaf node n6 p0 sample" transform="translate(7.04 4.34027)"><path class="edge" d="M 0 0 V -4.34027 H -7.04" /><rect class="sym" height="6" width="6" x="-3" y="-3" /><text class="lab" transform="translate(0 11)">6</text></g><path class="edge" d="M 0 0 V -3.74396 H -14.08" /><circle class="sym" cx="0" cy="0" r="3" /><text class="lab rgt" transform="translate(3 -7.0)">379</text></g><g class="a911 c2 node n763 p0" transform="translate(-14.08 1.01115)"><g class="a763 i0 leaf node n0 p0 sample" transform="translate(-7.04 7.07307)"><path class="edge" d="M 0 0 V -7.07307 H 7.04" /><rect class="sym" height="6" width="6" x="-3" y="-3" /><text class="lab" transform="translate(0 11)">0</text></g><g class="a763 i4 leaf node n9 p0 sample" transform="translate(7.04 7.07307)"><path class="edge" d="M 0 0 V -7.07307 H -7.04" /><rect class="sym" height="6" width="6" x="-3" y="-3" /><text class="lab" transform="translate(0 11)">9</text></g><path class="edge" d="M 0 0 V -1.01115 H 14.08" /><circle class="sym" cx="0" cy="0" r="3" /><text class="lab lft" transform="translate(-3 -7.0)">763</text></g><path class="edge" d="M 0 0 V -23.2915 H 17.6" /><circle class="sym" cx="0" cy="0" r="3" /><text class="lab lft" transform="translate(-3 -7.0)">911</text></g><path class="edge" d="M 0 0 V -3.67351 H 19.36" /><circle class="sym" cx="0" cy="0" r="3" /><text class="lab lft" transform="translate(-3 -7.0)">4199</text></g><path class="edge" d="M 0 0 V -5.42033 H 23.76" /><circle class="sym" cx="0" cy="0" r="3" /><text class="lab lft" transform="translate(-3 -7.0)">4662</text></g><path class="edge" d="M 0 0 V -54.1304 H 22.44" /><g class="mut m2 s2" transform="translate(0 -22.8417)"><line x1="0" x2="0" y1="0" y2="22.8417" /><path class="sym" d="M -3,-3 l 6,6 M -3,3 l 6,-6" /><text class="lab lft" transform="translate(-5 0)">2</text></g><circle class="sym" cx="0" cy="0" r="3" /><text class="lab lft" transform="translate(-3 -7.0)">5225</text></g><circle class="sym" cx="0" cy="0" r="3" /><text class="lab" transform="translate(0 -11)">9064</text></g></g></g><g class="tree t1" transform="translate(418.4 0)"><g class="plotbox"><g class="c2 node n9064 p0 root" transform="translate(93.04 26.8)"><g class="a9064 c2 node n5225 p0" transform="translate(27.28 54.1304)"><g class="a5225 c2 m3 node n2587 p0 s3" transform="translate(-15.84 21.5696)"><g class="a2587 i0 leaf node n1 p0 sample" transform="translate(-7.04 18.9)"><path class="edge" d="M 0 0 V -18.9 H 7.04" /><rect class="sym" height="6" width="6" x="-3" y="-3" /><text class="lab" transform="translate(0 11)">1</text></g><g class="a2587 i2 leaf node n5 p0 sample" transform="translate(7.04 18.9)"><path class="edge" d="M 0 0 V -18.9 H -7.04" /><rect class="sym" height="6" width="6" x="-3" y="-3" /><text class="lab" transform="translate(0 11)">5</text></g><path class="edge" d="M 0 0 V -21.5696 H 15.84" /><g class="mut m3 s3" transform="translate(0 -7.82828)"><line x1="0" x2="0" y1="0" y2="7.82828" /><path class="sym" d="M -3,-3 l 6,6 M -3,3 l 6,-6" /><text class="lab lft" transform="translate(-5 0)">3</text></g><circle class="sym" cx="0" cy="0" r="3" /><text class="lab lft" transform="translate(-3 -7.0)">2587</text></g><g class="a5225 c2 node n4662 p0" transform="translate(15.84 5.42033)"><g class="a4662 c2 node n3624 p0" transform="translate(10.56 8.45565)"><g class="a3624 i2 leaf node n4 p0 sample" transform="translate(-7.04 26.5936)"><path class="edge" d="M 0 0 V -26.5936 H 7.04" /><rect class="sym" height="6" width="6" x="-3" y="-3" /><text class="lab" transform="translate(0 11)">4</text></g><g class="a3624 i4 leaf node n8 p0 sample" transform="translate(7.04 26.5936)"><path class="edge" d="M 0 0 V -26.5936 H -7.04" /><rect class="sym" height="6" width="6" x="-3" y="-3" /><text class="lab" transform="translate(0 11)">8</text></g><path class="edge" d="M 0 0 V -8.45565 H -10.56" /><circle class="sym" cx="0" cy="0" r="3" /><text class="lab rgt" transform="translate(3 -7.0)">3624</text></g><g class="a4662 i1 leaf node n3 p0 sample" transform="translate(-10.56 35.0493)"><path class="edge" d="M 0 0 V -35.0493 H 10.56" /><rect class="sym" height="6" width="6" x="-3" y="-3" /><text class="lab" transform="translate(0 11)">3</text></g><path class="edge" d="M 0 0 V -5.42033 H -15.84" /><circle class="sym" cx="0" cy="0" r="3" /><text class="lab rgt" transform="translate(3 -7.0)">4662</text></g><path class="edge" d="M 0 0 V -54.1304 H -27.28" /><circle class="sym" cx="0" cy="0" r="3" /><text class="lab rgt" transform="translate(3 -7.0)">5225</text></g><g class="a9064 c2 node n4840 p0" transform="translate(-27.28 57.916)"><g class="a4840 i3 leaf node n7 p0 sample" transform="translate(17.6 36.684)"><path class="edge" d="M 0 0 V -36.684 H -17.6" /><rect class="sym" height="6" width="6" x="-3" y="-3" /><text class="lab" transform="translate(0 11)">7</text></g><g class="a4840 c2 node n911 p0" transform="translate(-17.6 28.5998)"><g class="a911 c2 node n379 p0" transform="translate(14.08 3.74396)"><g class="a379 i1 leaf node n2 p0 sample" transform="translate(-7.04 4.34027)"><path class="edge" d="M 0 0 V -4.34027 H 7.04" /><rect class="sym" height="6" width="6" x="-3" y="-3" /><text class="lab" transform="translate(0 11)">2</text></g><g class="a379 i3 leaf node n6 p0 sample" transform="translate(7.04 4.34027)"><path class="edge" d="M 0 0 V -4.34027 H -7.04" /><rect class="sym" height="6" width="6" x="-3" y="-3" /><text class="lab" transform="translate(0 11)">6</text></g><path class="edge" d="M 0 0 V -3.74396 H -14.08" /><circle class="sym" cx="0" cy="0" r="3" /><text class="lab rgt" transform="translate(3 -7.0)">379</text></g><g class="a911 c2 node n763 p0" transform="translate(-14.08 1.01115)"><g class="a763 i0 leaf node n0 p0 sample" transform="translate(-7.04 7.07307)"><path class="edge" d="M 0 0 V -7.07307 H 7.04" /><rect class="sym" height="6" width="6" x="-3" y="-3" /><text class="lab" transform="translate(0 11)">0</text></g><g class="a763 i4 leaf node n9 p0 sample" transform="translate(7.04 7.07307)"><path class="edge" d="M 0 0 V -7.07307 H -7.04" /><rect class="sym" height="6" width="6" x="-3" y="-3" /><text class="lab" transform="translate(0 11)">9</text></g><path class="edge" d="M 0 0 V -1.01115 H 14.08" /><circle class="sym" cx="0" cy="0" r="3" /><text class="lab lft" transform="translate(-3 -7.0)">763</text></g><path class="edge" d="M 0 0 V -28.5998 H 17.6" /><circle class="sym" cx="0" cy="0" r="3" /><text class="lab lft" transform="translate(-3 -7.0)">911</text></g><path class="edge" d="M 0 0 V -57.916 H 27.28" /><circle class="sym" cx="0" cy="0" r="3" /><text class="lab lft" transform="translate(-3 -7.0)">4840</text></g><circle class="sym" cx="0" cy="0" r="3" /><text class="lab" transform="translate(0 -11)">9064</text></g></g></g><g class="tree t2" transform="translate(599.2 0)"><g class="plotbox"><g class="c2 node n9064 p0 root" transform="translate(103.16 26.8)"><g class="a9064 c2 node n5225 p0" transform="translate(37.4 54.1304)"><g class="a5225 c2 node n4662 p0" transform="translate(-13.2 5.42033)"><g class="a4662 c2 node n3624 p0" transform="translate(-12.32 8.45565)"><g class="a3624 i2 leaf node n4 p0 sample" transform="translate(10.56 26.5936)"><path class="edge" d="M 0 0 V -26.5936 H -10.56" /><rect class="sym" height="6" width="6" x="-3" y="-3" /><text class="lab" transform="translate(0 11)">4</text></g><g class="a3624 c2 node n3145 p0" transform="translate(-10.56 3.58516)"><g class="a3145 i0 leaf node n1 p0 sample" transform="translate(-7.04 23.0085)"><path class="edge" d="M 0 0 V -23.0085 H 7.04" /><rect class="sym" height="6" width="6" x="-3" y="-3" /><text class="lab" transform="translate(0 11)">1</text></g><g class="a3145 i4 leaf node n8 p0 sample" transform="translate(7.04 23.0085)"><path class="edge" d="M 0 0 V -23.0085 H -7.04" /><rect class="sym" height="6" width="6" x="-3" y="-3" /><text class="lab" transform="translate(0 11)">8</text></g><path class="edge" d="M 0 0 V -3.58516 H 10.56" /><circle class="sym" cx="0" cy="0" r="3" /><text class="lab lft" transform="translate(-3 -7.0)">3145</text></g><path class="edge" d="M 0 0 V -8.45565 H 12.32" /><circle class="sym" cx="0" cy="0" r="3" /><text class="lab lft" transform="translate(-3 -7.0)">3624</text></g><g class="a4662 i1 leaf node n3 p0 sample" transform="translate(12.32 35.0493)"><path class="edge" d="M 0 0 V -35.0493 H -12.32" /><rect class="sym" height="6" width="6" x="-3" y="-3" /><text class="lab" transform="translate(0 11)">3</text></g><path class="edge" d="M 0 0 V -5.42033 H 13.2" /><circle class="sym" cx="0" cy="0" r="3" /><text class="lab lft" transform="translate(-3 -7.0)">4662</text></g><g class="a5225 i2 leaf node n5 p0 sample" transform="translate(13.2 40.4696)"><path class="edge" d="M 0 0 V -40.4696 H -13.2" /><rect class="sym" height="6" width="6" x="-3" y="-3" /><text class="lab" transform="translate(0 11)">5</text></g><path class="edge" d="M 0 0 V -54.1304 H -37.4" /><circle class="sym" cx="0" cy="0" r="3" /><text class="lab rgt" transform="translate(3 -7.0)">5225</text></g><g class="a9064 c2 node n4840 p0" transform="translate(-37.4 57.916)"><g class="a4840 i3 leaf node n7 p0 sample" transform="translate(17.6 36.684)"><path class="edge" d="M 0 0 V -36.684 H -17.6" /><rect class="sym" height="6" width="6" x="-3" y="-3" /><text class="lab" transform="translate(0 11)">7</text></g><g class="a4840 c2 node n911 p0" transform="translate(-17.6 28.5998)"><g class="a911 c2 node n379 p0" transform="translate(14.08 3.74396)"><g class="a379 i1 leaf node n2 p0 sample" transform="translate(-7.04 4.34027)"><path class="edge" d="M 0 0 V -4.34027 H 7.04" /><rect class="sym" height="6" width="6" x="-3" y="-3" /><text class="lab" transform="translate(0 11)">2</text></g><g class="a379 i3 leaf node n6 p0 sample" transform="translate(7.04 4.34027)"><path class="edge" d="M 0 0 V -4.34027 H -7.04" /><rect class="sym" height="6" width="6" x="-3" y="-3" /><text class="lab" transform="translate(0 11)">6</text></g><path class="edge" d="M 0 0 V -3.74396 H -14.08" /><circle class="sym" cx="0" cy="0" r="3" /><text class="lab rgt" transform="translate(3 -7.0)">379</text></g><g class="a911 c2 node n763 p0" transform="translate(-14.08 1.01115)"><g class="a763 i0 leaf node n0 p0 sample" transform="translate(-7.04 7.07307)"><path class="edge" d="M 0 0 V -7.07307 H 7.04" /><rect class="sym" height="6" width="6" x="-3" y="-3" /><text class="lab" transform="translate(0 11)">0</text></g><g class="a763 i4 leaf node n9 p0 sample" transform="translate(7.04 7.07307)"><path class="edge" d="M 0 0 V -7.07307 H -7.04" /><rect class="sym" height="6" width="6" x="-3" y="-3" /><text class="lab" transform="translate(0 11)">9</text></g><path class="edge" d="M 0 0 V -1.01115 H 14.08" /><circle class="sym" cx="0" cy="0" r="3" /><text class="lab lft" transform="translate(-3 -7.0)">763</text></g><path class="edge" d="M 0 0 V -28.5998 H 17.6" /><circle class="sym" cx="0" cy="0" r="3" /><text class="lab lft" transform="translate(-3 -7.0)">911</text></g><path class="edge" d="M 0 0 V -57.916 H 37.4" /><circle class="sym" cx="0" cy="0" r="3" /><text class="lab lft" transform="translate(-3 -7.0)">4840</text></g><circle class="sym" cx="0" cy="0" r="3" /><text class="lab" transform="translate(0 -11)">9064</text></g></g></g></g></g></svg>
