<svg baseProfile="full" height="200" version="1.1" width="1400" xmlns="http://www.w3.org/2000/svg" xmlns:ev="http://www.w3.org/2001/xml-events" xmlns:xlink="http://www.w3.org/1999/xlink"><defs><style type="text/css"><![CDATA[.background path {fill: #808080; fill-opacity: 0}.background path:nth-child(odd) {fill-opacity: .1}.axes {font-size: 14px}.x-axis .tick .lab {font-weight: bold; dominant-baseline: hanging}.axes, .tree {font-size: 14px; text-anchor: middle}.axes line, .edge {stroke: black; fill: none}.axes .ax-skip {stroke-dasharray: 4}.y-axis .grid {stroke: #FAFAFA}.node > .sym {fill: black; stroke: none}.site > .sym {stroke: black}.mut text {fill: red; font-style: italic}.mut.extra text {fill: hotpink}.mut line {fill: none; stroke: none}.mut .sym {fill: none; stroke: red}.mut.extra .sym {stroke: hotpink}.node .mut .sym {stroke-width: 1.5px}.tree text, .tree-sequence text {dominant-baseline: central}.plotbox .lab.lft {text-anchor: end}.plotbox .lab.rgt {text-anchor: start}]]></style></defs><g class="tree-sequence"><g class="background"><path d="M56.8,0 l189.029,0 l0,138.2 l56.425,25 l0,5 l-245.454,0 l0,-5 l0,-25 l0,-138.2z" /><path d="M245.829,0 l189.029,0 l0,138.2 l-19.6023,25 l0,5 l-113.001,0 l0,-5 l-56.425,-25 l0,-138.2z" /><path d="M434.857,0 l189.029,0 l0,138.2 l-67.71,25 l0,5 l-140.921,0 l0,-5 l19.602,-25 l0,-138.2z" /><path d="M623.886,0 l189.029,0 l0,138.2 l-250.52,25 l0,5 l-6.21904,0 l0,-5 l67.71,-25 l0,-138.2z" /><path d="M812.914,0 l189.029,0 l0,138.2 l-339.382,25 l0,5 l-100.166,0 l0,-5 l250.519,-25 l0,-138.2z" /><path d="M1001.94,0 l189.029,0 l0,138.2 l-30.4903,25 l0,5 l-497.92,0 l0,-5 l339.379,-25 l0,-138.2z" /><path d="M1190.97,0 l189.029,0 l0,138.2 l-2.27374e-13,25 l0,5 l-219.519,0 l0,-5 l30.49,-25 l0,-138.2z" /></g><g class="axes"><g class="x-axis"><g class="title" transform="translate(718.4 200)"><text class="lab" text-anchor="middle" transform="translate(0 -11)">Genome position</text></g><line class="ax-line" x1="56.8" x2="1380" y1="163.2" y2="163.2" /><g class="ticks"><g class="tick" transform="translate(56.8 163.2)"><line x1="0" x2="0" y1="0" y2="5" /><g transform="translate(0 6)"><text class="lab">0</text></g></g><g class="tick" transform="translate(302.254 163.2)"><line x1="0" x2="0" y1="0" y2="5" /><g transform="translate(0 6)"><text class="lab">1855</text></g></g><g class="tick" transform="translate(415.255 163.2)"><line x1="0" x2="0" y1="0" y2="5" /><g transform="translate(0 6)"><text class="lab">2709</text></g></g><g class="tick" transform="translate(556.176 163.2)"><line x1="0" x2="0" y1="0" y2="5" /><g transform="translate(0 6)"><text class="lab">3774</text></g></g><g class="tick" transform="translate(562.395 163.2)"><line x1="0" x2="0" y1="0" y2="5" /><g transform="translate(0 6)"><text class="lab">3821</text></g></g><g class="tick" transform="translate(662.561 163.2)"><line x1="0" x2="0" y1="0" y2="5" /><g transform="translate(0 6)"><text class="lab">4578</text></g></g><g class="tick" transform="translate(1160.48 163.2)"><line x1="0" x2="0" y1="0" y2="5" /><g transform="translate(0 6)"><text class="lab">8341</text></g></g></g><g class="site s0" transform="translate(127.724 163.2)"><line class="sym" x1="0" x2="0" y1="0" y2="-10" /><g class="mut m0"><polyline class="sym" points="2.5,-6.5 0,-1.5 -2.5,-6.5" /></g></g><g class="site s1" transform="translate(225.905 163.2)"><line class="sym" x1="0" x2="0" y1="0" y2="-10" /><g class="mut m1"><polyline class="sym" points="2.5,-6.5 0,-1.5 -2.5,-6.5" /></g></g><g class="site s2" transform="translate(454.289 163.2)"><line class="sym" x1="0" x2="0" y1="0" y2="-10" /><g class="mut m2"><polyline class="sym" points="2.5,-6.5 0,-1.5 -2.5,-6.5" /></g></g><g class="site s3" transform="translate(459.317 163.2)"><line class="sym" x1="0" x2="0" y1="0" y2="-10" /><g class="mut m3"><polyline class="sym" points="2.5,-6.5 0,-1.5 -2.5,-6.5" /></g></g></g><g class="y-axis"><g class="title" transform="translate(0 65.7)"><text class="lab" text-anchor="middle" transform="translate(11) rotate(-90)">Time (generations)</text></g><line class="ax-line" x1="56.8" x2="56.8" y1="121.4" y2="10" /><g class="ticks"><g class="tick" transform="translate(56.8 121.4)"><line x1="0" x2="-5" y1="0" y2="0" /><g transform="translate(-6 0)"><text class="lab" text-anchor="end">0.00</text></g></g><g class="tick" transform="translate(56.8 121.169)"><line x1="0" x2="-5" y1="0" y2="0" /><g transform="translate(-6 0)"><text class="lab" text-anchor="end">69.42</text></g></g><g class="tick" transform="translate(56.8 120.28)"><line x1="0" x2="-5" y1="0" y2="0" /><g transform="translate(-6 0)"><text class="lab" text-anchor="end">337.00</text></g></g><g class="tick" transform="translate(56.8 119.425)"><line x1="0" x2="-5" y1="0" y2="0" /><g transform="translate(-6 0)"><text class="lab" text-anchor="end">594.44</text></g></g><g class="tick" transform="translate(56.8 117.55)"><line x1="0" x2="-5" y1="0" y2="0" /><g transform="translate(-6 0)"><text class="lab" text-anchor="end">1158.85</text></g></g><g class="tick" transform="translate(56.8 115.767)"><line x1="0" x2="-5" y1="0" y2="0" /><g transform="translate(-6 0)"><text class="lab" text-anchor="end">1695.45</text></g></g><g class="tick" transform="translate(56.8 114.746)"><line x1="0" x2="-5" y1="0" y2="0" /><g transform="translate(-6 0)"><text class="lab" text-anchor="end">2002.89</text></g></g><g class="tick" transform="translate(56.8 111.724)"><line x1="0" x2="-5" y1="0" y2="0" /><g transform="translate(-6 0)"><text class="lab" text-anchor="end">2912.33</text></g></g><g class="tick" transform="translate(56.8 110.932)"><line x1="0" x2="-5" y1="0" y2="0" /><g transform="translate(-6 0)"><text class="lab" text-anchor="end">3150.89</text></g></g><g class="tick" transform="translate(56.8 107.168)"><line x1="0" x2="-5" y1="0" y2="0" /><g transform="translate(-6 0)"><text class="lab" text-anchor="end">4283.86</text></g></g><g class="tick" transform="translate(56.8 96.8911)"><line x1="0" x2="-5" y1="0" y2="0" /><g transform="translate(-6 0)"><text class="lab" text-anchor="end">7377.16</text></g></g><g class="tick" transform="translate(56.8 85.5157)"><line x1="0" x2="-5" y1="0" y2="0" /><g transform="translate(-6 0)"><text class="lab" text-anchor="end">10801.16</text></g></g><g class="tick" transform="translate(56.8 74.5755)"><line x1="0" x2="-5" y1="0" y2="0" /><g transform="translate(-6 0)"><text class="lab" text-anchor="end">14094.16</text></g></g><g class="tick" transform="translate(56.8 60.6217)"><line x1="0" x2="-5" y1="0" y2="0" /><g transform="translate(-6 0)"><text class="lab" text-anchor="end">18294.27</text></g></g><g class="tick" transform="translate(56.8 26.8)"><line x1="0" x2="-5" y1="0" y2="0" /><g transform="translate(-6 0)"><text class="lab" text-anchor="end">28474.59</text></g></g></g></g></g><g class="plotbox trees"><g class="tree t-1" transform="translate(56.8 0)"><g class="plotbox"><g class="c2 node n10566 p0 root" transform="translate(71.4614 74.5755)"><g class="a10566 c2 node n2179 p0" transform="translate(-25.3814 41.1917)"><g class="a2179 i1 leaf node n3 p0 sample" transform="translate(11.1771 5.63273)"><path class="edge" d="M 0 0 V -5.63273 H -11.1771" /><rect class="sym" height="6" width="6" x="-3" y="-3" /><text class="lab" transform="translate(0 11)">3</text></g><g class="a2179 c2 node n25 p0" transform="translate(-11.1771 5.40211)"><g class="a25 i0 leaf node n0 p0 sample" transform="translate(-7.45143 0.230621)"><path class="edge" d="M 0 0 V -0.230621 H 7.45143" /><rect class="sym" height="6" width="6" x="-3" y="-3" /><text class="lab" transform="translate(0 11)">0</text></g><g class="a25 i2 leaf node n4 p0 sample" transform="translate(7.45143 0.230621)"><path class="edge" d="M 0 0 V -0.230621 H -7.45143" /><rect class="sym" height="6" width="6" x="-3" y="-3" /><text class="lab" transform="translate(0 11)">4</text></g><path class="edge" d="M 0 0 V -5.40211 H 11.1771" /><circle class="sym" cx="0" cy="0" r="3" /><text class="lab lft" transform="translate(-3 -7.0)">25</text></g><path class="edge" d="M 0 0 V -41.1917 H 25.3814" /><circle class="sym" cx="0" cy="0" r="3" /><text class="lab lft" transform="translate(-3 -7.0)">2179</text></g><g class="a10566 c2 node n9234 p0" transform="translate(25.3814 10.9402)"><g class="a9234 i0 leaf node n1 p0 sample" transform="translate(-24.6829 35.8843)"><path class="edge" d="M 0 0 V -35.8843 H 24.6829" /><rect class="sym" height="6" width="6" x="-3" y="-3" /><text class="lab" transform="translate(0 11)">1</text></g><g class="a9234 c2 m0 node n3991 p0 s0" transform="translate(24.6829 25.4162)"><g class="a3991 c2 node n274 p0" transform="translate(-27.0114 9.34846)"><g class="a274 i1 leaf node n2 p0 sample" transform="translate(-7.45143 1.11961)"><path class="edge" d="M 0 0 V -1.11961 H 7.45143" /><rect class="sym" height="6" width="6" x="-3" y="-3" /><text class="lab" transform="translate(0 11)">2</text></g><g class="a274 i4 leaf node n8 p0 sample" transform="translate(7.45143 1.11961)"><path class="edge" d="M 0 0 V -1.11961 H -7.45143" /><rect class="sym" height="6" width="6" x="-3" y="-3" /><text class="lab" transform="translate(0 11)">8</text></g><path class="edge" d="M 0 0 V -9.34846 H 27.0114" /><circle class="sym" cx="0" cy="0" r="3" /><text class="lab lft" transform="translate(-3 -7.0)">274</text></g><g class="a3991 c2 node n3717 p0" transform="translate(27.0114 0.792554)"><g class="a3717 i3 leaf node n7 p0 sample" transform="translate(13.04 9.67551)"><path class="edge" d="M 0 0 V -9.67551 H -13.04" /><rect class="sym" height="6" width="6" x="-3" y="-3" /><text class="lab" transform="translate(0 11)">7</text></g><g class="a3717 c2 node n1387 p0" transform="translate(-13.04 5.8255)"><g class="a1387 i4 leaf m1 node n9 p0 s1 sample" transform="translate(11.1771 3.85001)"><path class="edge" d="M 0 0 V -3.85001 H -11.1771" /><g class="mut m1 s1" transform="translate(0 -1.58743)"><line x1="0" x2="0" y1="0" y2="1.58743" /><path class="sym" d="M -3,-3 l 6,6 M -3,3 l 6,-6" /><text class="lab rgt" transform="translate(5 0)">1</text></g><rect class="sym" height="6" width="6" x="-3" y="-3" /><text class="lab" transform="translate(0 11)">9</text></g><g class="a1387 c2 node n592 p0" transform="translate(-11.1771 1.87514)"><g class="a592 i2 leaf node n5 p0 sample" transform="translate(-7.45143 1.97487)"><path class="edge" d="M 0 0 V -1.97487 H 7.45143" /><rect class="sym" height="6" width="6" x="-3" y="-3" /><text class="lab" transform="translate(0 11)">5</text></g><g class="a592 i3 leaf node n6 p0 sample" transform="translate(7.45143 1.97487)"><path class="edge" d="M 0 0 V -1.97487 H -7.45143" /><rect class="sym" height="6" width="6" x="-3" y="-3" /><text class="lab" transform="translate(0 11)">6</text></g><path class="edge" d="M 0 0 V -1.87514 H 11.1771" /><circle class="sym" cx="0" cy="0" r="3" /><text class="lab lft" transform="translate(-3 -7.0)">592</text></g><path class="edge" d="M 0 0 V -5.8255 H 13.04" /><circle class="sym" cx="0" cy="0" r="3" /><text class="lab lft" transform="translate(-3 -7.0)">1387</text></g><path class="edge" d="M 0 0 V -0.792554 H -27.0114" /><circle class="sym" cx="0" cy="0" r="3" /><text class="lab rgt" transform="translate(3 -7.0)">3717</text></g><path class="edge" d="M 0 0 V -25.4162 H -24.6829" /><g class="mut m0 s0" transform="translate(0 -20.7813)"><line x1="0" x2="0" y1="0" y2="20.7813" /><path class="sym" d="M -3,-3 l 6,6 M -3,3 l 6,-6" /><text class="lab rgt" transform="translate(5 0)">0</text></g><circle class="sym" cx="0" cy="0" r="3" /><text class="lab rgt" transform="translate(3 -7.0)">3991</text></g><path class="edge" d="M 0 0 V -10.9402 H -25.3814" /><circle class="sym" cx="0" cy="0" r="3" /><text class="lab rgt" transform="translate(3 -7.0)">9234</text></g><circle class="sym" cx="0" cy="0" r="3" /><text class="lab" transform="translate(0 -11)">10566</text></g></g></g><g class="tree t0" transform="translate(245.829 0)"><g class="plotbox"><g class="c2 node n13990 p0 root" transform="translate(71.4614 26.8)"><g class="a13990 c2 node n2179 p0" transform="translate(-25.3814 88.9673)"><g class="a2179 i1 leaf node n3 p0 sample" transform="translate(11.1771 5.63273)"><path class="edge" d="M 0 0 V -5.63273 H -11.1771" /><rect class="sym" height="6" width="6" x="-3" y="-3" /><text class="lab" transform="translate(0 11)">3</text></g><g class="a2179 c2 node n25 p0" transform="translate(-11.1771 5.40211)"><g class="a25 i0 leaf node n0 p0 sample" transform="translate(-7.45143 0.230621)"><path class="edge" d="M 0 0 V -0.230621 H 7.45143" /><rect class="sym" height="6" width="6" x="-3" y="-3" /><text class="lab" transform="translate(0 11)">0</text></g><g class="a25 i2 leaf node n4 p0 sample" transform="translate(7.45143 0.230621)"><path class="edge" d="M 0 0 V -0.230621 H -7.45143" /><rect class="sym" height="6" width="6" x="-3" y="-3" /><text class="lab" transform="translate(0 11)">4</text></g><path class="edge" d="M 0 0 V -5.40211 H 11.1771" /><circle class="sym" cx="0" cy="0" r="3" /><text class="lab lft" transform="translate(-3 -7.0)">25</text></g><path class="edge" d="M 0 0 V -88.9673 H 25.3814" /><circle class="sym" cx="0" cy="0" r="3" /><text class="lab lft" transform="translate(-3 -7.0)">2179</text></g><g class="a13990 c2 node n9234 p0" transform="translate(25.3814 58.7157)"><g class="a9234 i0 leaf node n1 p0 sample" transform="translate(-24.6829 35.8843)"><path class="edge" d="M 0 0 V -35.8843 H 24.6829" /><rect class="sym" height="6" width="6" x="-3" y="-3" /><text class="lab" transform="translate(0 11)">1</text></g><g class="a9234 c2 node n3991 p0" transform="translate(24.6829 25.4162)"><g class="a3991 c2 node n274 p0" transform="translate(-27.0114 9.34846)"><g class="a274 i1 leaf node n2 p0 sample" transform="translate(-7.45143 1.11961)"><path class="edge" d="M 0 0 V -1.11961 H 7.45143" /><rect class="sym" height="6" width="6" x="-3" y="-3" /><text class="lab" transform="translate(0 11)">2</text></g><g class="a274 i4 leaf node n8 p0 sample" transform="translate(7.45143 1.11961)"><path class="edge" d="M 0 0 V -1.11961 H -7.45143" /><rect class="sym" height="6" width="6" x="-3" y="-3" /><text class="lab" transform="translate(0 11)">8</text></g><path class="edge" d="M 0 0 V -9.34846 H 27.0114" /><circle class="sym" cx="0" cy="0" r="3" /><text class="lab lft" transform="translate(-3 -7.0)">274</text></g><g class="a3991 c2 node n3717 p0" transform="translate(27.0114 0.792554)"><g class="a3717 i3 leaf node n7 p0 sample" transform="translate(13.04 9.67551)"><path class="edge" d="M 0 0 V -9.67551 H -13.04" /><rect class="sym" height="6" width="6" x="-3" y="-3" /><text class="lab" transform="translate(0 11)">7</text></g><g class="a3717 c2 node n1387 p0" transform="translate(-13.04 5.8255)"><g class="a1387 i4 leaf node n9 p0 sample" transform="translate(11.1771 3.85001)"><path class="edge" d="M 0 0 V -3.85001 H -11.1771" /><rect class="sym" height="6" width="6" x="-3" y="-3" /><text class="lab" transform="translate(0 11)">9</text></g><g class="a1387 c2 node n592 p0" transform="translate(-11.1771 1.87514)"><g class="a592 i2 leaf node n5 p0 sample" transform="translate(-7.45143 1.97487)"><path class="edge" d="M 0 0 V -1.97487 H 7.45143" /><rect class="sym" height="6" width="6" x="-3" y="-3" /><text class="lab" transform="translate(0 11)">5</text></g><g class="a592 i3 leaf node n6 p0 sample" transform="translate(7.45143 1.97487)"><path class="edge" d="M 0 0 V -1.97487 H -7.45143" /><rect class="sym" height="6" width="6" x="-3" y="-3" /><text class="lab" transform="translate(0 11)">6</text></g><path class="edge" d="M 0 0 V -1.87514 H 11.1771" /><circle class="sym" cx="0" cy="0" r="3" /><text class="lab lft" transform="translate(-3 -7.0)">592</text></g><path class="edge" d="M 0 0 V -5.8255 H 13.04" /><circle class="sym" cx="0" cy="0" r="3" /><text class="lab lft" transform="translate(-3 -7.0)">1387</text></g><path class="edge" d="M 0 0 V -0.792554 H -27.0114" /><circle class="sym" cx="0" cy="0" r="3" /><text class="lab rgt" transform="translate(3 -7.0)">3717</text></g><path class="edge" d="M 0 0 V -25.4162 H -24.6829" /><circle class="sym" cx="0" cy="0" r="3" /><text class="lab rgt" transform="translate(3 -7.0)">3991</text></g><path class="edge" d="M 0 0 V -58.7157 H -25.3814" /><circle class="sym" cx="0" cy="0" r="3" /><text class="lab rgt" transform="translate(3 -7.0)">9234</text></g><circle class="sym" cx="0" cy="0" r="3" /><text class="lab" transform="translate(0 -11)">13990</text></g></g></g><g class="tree t1" transform="translate(434.857 0)"><g class="plotbox"><g class="c2 node n13990 p0 root" transform="translate(71.4614 26.8)"><g class="a13990 c2 node n9234 p0" transform="translate(25.3814 58.7157)"><g class="a9234 i0 leaf m2 node n1 p0 s2 sample" transform="translate(-24.6829 35.8843)"><path class="edge" d="M 0 0 V -35.8843 H 24.6829" /><g class="mut m2 s2" transform="translate(0 -8.86149)"><line x1="0" x2="0" y1="0" y2="8.86149" /><path class="sym" d="M -3,-3 l 6,6 M -3,3 l 6,-6" /><text class="lab lft" transform="translate(-5 0)">2</text></g><rect class="sym" height="6" width="6" x="-3" y="-3" /><text class="lab" transform="translate(0 11)">1</text></g><g class="a9234 c2 node n3991 p0" transform="translate(24.6829 25.4162)"><g class="a3991 c2 node n274 p0" transform="translate(-27.0114 9.34846)"><g class="a274 i1 leaf node n2 p0 sample" transform="translate(-7.45143 1.11961)"><path class="edge" d="M 0 0 V -1.11961 H 7.45143" /><rect class="sym" height="6" width="6" x="-3" y="-3" /><text class="lab" transform="translate(0 11)">2</text></g><g class="a274 i4 leaf node n8 p0 sample" transform="translate(7.45143 1.11961)"><path class="edge" d="M 0 0 V -1.11961 H -7.45143" /><rect class="sym" height="6" width="6" x="-3" y="-3" /><text class="lab" transform="translate(0 11)">8</text></g><path class="edge" d="M 0 0 V -9.34846 H 27.0114" /><circle class="sym" cx="0" cy="0" r="3" /><text class="lab lft" transform="translate(-3 -7.0)">274</text></g><g class="a3991 c2 node n3717 p0" transform="translate(27.0114 0.792554)"><g class="a3717 i3 leaf node n7 p0 sample" transform="translate(13.04 9.67551)"><path class="edge" d="M 0 0 V -9.67551 H -13.04" /><rect class="sym" height="6" width="6" x="-3" y="-3" /><text class="lab" transform="translate(0 11)">7</text></g><g class="a3717 c2 node n1387 p0" transform="translate(-13.04 5.8255)"><g class="a1387 i4 leaf node n9 p0 sample" transform="translate(11.1771 3.85001)"><path class="edge" d="M 0 0 V -3.85001 H -11.1771" /><rect class="sym" height="6" width="6" x="-3" y="-3" /><text class="lab" transform="translate(0 11)">9</text></g><g class="a1387 c2 node n592 p0" transform="translate(-11.1771 1.87514)"><g class="a592 i2 leaf node n5 p0 sample" transform="translate(-7.45143 1.97487)"><path class="edge" d="M 0 0 V -1.97487 H 7.45143" /><rect class="sym" height="6" width="6" x="-3" y="-3" /><text class="lab" transform="translate(0 11)">5</text></g><g class="a592 i3 leaf node n6 p0 sample" transform="translate(7.45143 1.97487)"><path class="edge" d="M 0 0 V -1.97487 H -7.45143" /><rect class="sym" height="6" width="6" x="-3" y="-3" /><text class="lab" transform="translate(0 11)">6</text></g><path class="edge" d="M 0 0 V -1.87514 H 11.1771" /><circle class="sym" cx="0" cy="0" r="3" /><text class="lab lft" transform="translate(-3 -7.0)">592</text></g><path class="edge" d="M 0 0 V -5.8255 H 13.04" /><circle class="sym" cx="0" cy="0" r="3" /><text class="lab lft" transform="translate(-3 -7.0)">1387</text></g><path class="edge" d="M 0 0 V -0.792554 H -27.0114" /><circle class="sym" cx="0" cy="0" r="3" /><text class="lab rgt" transform="translate(3 -7.0)">3717</text></g><path class="edge" d="M 0 0 V -25.4162 H -24.6829" /><circle class="sym" cx="0" cy="0" r="3" /><text class="lab rgt" transform="translate(3 -7.0)">3991</text></g><path class="edge" d="M 0 0 V -58.7157 H -25.3814" /><circle class="sym" cx="0" cy="0" r="3" /><text class="lab rgt" transform="translate(3 -7.0)">9234</text></g><g class="a13990 c2 node n5081 p0" transform="translate(-25.3814 80.3679)"><g class="a5081 i1 leaf node n3 p0 sample" transform="translate(11.1771 14.2321)"><path class="edge" d="M 0 0 V -14.2321 H -11.1771" /><rect class="sym" height="6" width="6" x="-3" y="-3" /><text class="lab" transform="translate(0 11)">3</text></g><g class="a5081 c2 m3 node n25 p0 s3" transform="translate(-11.1771 14.0015)"><g class="a25 i0 leaf node n0 p0 sample" transform="translate(-7.45143 0.230621)"><path class="edge" d="M 0 0 V -0.230621 H 7.45143" /><rect class="sym" height="6" width="6" x="-3" y="-3" /><text class="lab" transform="translate(0 11)">0</text></g><g class="a25 i2 leaf node n4 p0 sample" transform="translate(7.45143 0.230621)"><path class="edge" d="M 0 0 V -0.230621 H -7.45143" /><rect class="sym" height="6" width="6" x="-3" y="-3" /><text class="lab" transform="translate(0 11)">4</text></g><path class="edge" d="M 0 0 V -14.0015 H 11.1771" /><g class="mut m3 s3" transform="translate(0 -4.21176)"><line x1="0" x2="0" y1="0" y2="4.21176" /><path class="sym" d="M -3,-3 l 6,6 M -3,3 l 6,-6" /><text class="lab lft" transform="translate(-5 0)">3</text></g><circle class="sym" cx="0" cy="0" r="3" /><text class="lab lft" transform="translate(-3 -7.0)">25</text></g><path class="edge" d="M 0 0 V -80.3679 H 25.3814" /><circle class="sym" cx="0" cy="0" r="3" /><text class="lab lft" transform="translate(-3 -7.0)">5081</text></g><circle class="sym" cx="0" cy="0" r="3" /><text class="lab" transform="translate(0 -11)">13990</text></g></g></g><g class="tree t2" transform="translate(623.886 0)"><g class="plotbox"><g class="c2 node n11897 p0 root" transform="translate(71.4614 60.6217)"><g class="a11897 c2 node n5081 p0" transform="translate(-25.3814 46.5462)"><g class="a5081 i1 leaf node n3 p0 sample" transform="translate(11.1771 14.2321)"><path class="edge" d="M 0 0 V -14.2321 H -11.1771" /><rect class="sym" height="6" width="6" x="-3" y="-3" /><text class="lab" transform="translate(0 11)">3</text></g><g class="a5081 c2 node n25 p0" transform="translate(-11.1771 14.0015)"><g class="a25 i0 leaf node n0 p0 sample" transform="translate(-7.45143 0.230621)"><path class="edge" d="M 0 0 V -0.230621 H 7.45143" /><rect class="sym" height="6" width="6" x="-3" y="-3" /><text class="lab" transform="translate(0 11)">0</text></g><g class="a25 i2 leaf node n4 p0 sample" transform="translate(7.45143 0.230621)"><path class="edge" d="M 0 0 V -0.230621 H -7.45143" /><rect class="sym" height="6" width="6" x="-3" y="-3" /><text class="lab" transform="translate(0 11)">4</text></g><path class="edge" d="M 0 0 V -14.0015 H 11.1771" /><circle class="sym" cx="0" cy="0" r="3" /><text class="lab lft" transform="translate(-3 -7.0)">25</text></g><path class="edge" d="M 0 0 V -46.5462 H 25.3814" /><circle class="sym" cx="0" cy="0" r="3" /><text class="lab lft" transform="translate(-3 -7.0)">5081</text></g><g class="a11897 c2 node n9234 p0" transform="translate(25.3814 24.894)"><g class="a9234 i0 leaf node n1 p0 sample" transform="translate(-24.6829 35.8843)"><path class="edge" d="M 0 0 V -35.8843 H 24.6829" /><rect class="sym" height="6" width="6" x="-3" y="-3" /><text class="lab" transform="translate(0 11)">1</text></g><g class="a9234 c2 node n3991 p0" transform="translate(24.6829 25.4162)"><g class="a3991 c2 node n274 p0" transform="translate(-27.0114 9.34846)"><g class="a274 i1 leaf node n2 p0 sample" transform="translate(-7.45143 1.11961)"><path class="edge" d="M 0 0 V -1.11961 H 7.45143" /><rect class="sym" height="6" width="6" x="-3" y="-3" /><text class="lab" transform="translate(0 11)">2</text></g><g class="a274 i4 leaf node n8 p0 sample" transform="translate(7.45143 1.11961)"><path class="edge" d="M 0 0 V -1.11961 H -7.45143" /><rect class="sym" height="6" width="6" x="-3" y="-3" /><text class="lab" transform="translate(0 11)">8</text></g><path class="edge" d="M 0 0 V -9.34846 H 27.0114" /><circle class="sym" cx="0" cy="0" r="3" /><text class="lab lft" transform="translate(-3 -7.0)">274</text></g><g class="a3991 c2 node n3717 p0" transform="translate(27.0114 0.792554)"><g class="a3717 i3 leaf node n7 p0 sample" transform="translate(13.04 9.67551)"><path class="edge" d="M 0 0 V -9.67551 H -13.04" /><rect class="sym" height="6" width="6" x="-3" y="-3" /><text class="lab" transform="translate(0 11)">7</text></g><g class="a3717 c2 node n1387 p0" transform="translate(-13.04 5.8255)"><g class="a1387 i4 leaf node n9 p0 sample" transform="translate(11.1771 3.85001)"><path class="edge" d="M 0 0 V -3.85001 H -11.1771" /><rect class="sym" height="6" width="6" x="-3" y="-3" /><text class="lab" transform="translate(0 11)">9</text></g><g class="a1387 c2 node n592 p0" transform="translate(-11.1771 1.87514)"><g class="a592 i2 leaf node n5 p0 sample" transform="translate(-7.45143 1.97487)"><path class="edge" d="M 0 0 V -1.97487 H 7.45143" /><rect class="sym" height="6" width="6" x="-3" y="-3" /><text class="lab" transform="translate(0 11)">5</text></g><g class="a592 i3 leaf node n6 p0 sample" transform="translate(7.45143 1.97487)"><path class="edge" d="M 0 0 V -1.97487 H -7.45143" /><rect class="sym" height="6" width="6" x="-3" y="-3" /><text class="lab" transform="translate(0 11)">6</text></g><path class="edge" d="M 0 0 V -1.87514 H 11.1771" /><circle class="sym" cx="0" cy="0" r="3" /><text class="lab lft" transform="translate(-3 -7.0)">592</text></g><path class="edge" d="M 0 0 V -5.8255 H 13.04" /><circle class="sym" cx="0" cy="0" r="3" /><text class="lab lft" transform="translate(-3 -7.0)">1387</text></g><path class="edge" d="M 0 0 V -0.792554 H -27.0114" /><circle class="sym" cx="0" cy="0" r="3" /><text class="lab rgt" transform="translate(3 -7.0)">3717</text></g><path class="edge" d="M 0 0 V -25.4162 H -24.6829" /><circle class="sym" cx="0" cy="0" r="3" /><text class="lab rgt" transform="translate(3 -7.0)">3991</text></g><path class="edge" d="M 0 0 V -24.894 H -25.3814" /><circle class="sym" cx="0" cy="0" r="3" /><text class="lab rgt" transform="translate(3 -7.0)">9234</text></g><circle class="sym" cx="0" cy="0" r="3" /><text class="lab" transform="translate(0 -11)">11897</text></g></g></g><g class="tree t3" transform="translate(812.914 0)"><g class="plotbox"><g class="c2 node n9234 p0 root" transform="translate(90.3229 85.5157)"><g class="a9234 c2 node n3991 p0" transform="translate(31.2029 25.4162)"><g class="a3991 c2 node n274 p0" transform="translate(-27.0114 9.34846)"><g class="a274 i1 leaf node n2 p0 sample" transform="translate(-7.45143 1.11961)"><path class="edge" d="M 0 0 V -1.11961 H 7.45143" /><rect class="sym" height="6" width="6" x="-3" y="-3" /><text class="lab" transform="translate(0 11)">2</text></g><g class="a274 i4 leaf node n8 p0 sample" transform="translate(7.45143 1.11961)"><path class="edge" d="M 0 0 V -1.11961 H -7.45143" /><rect class="sym" height="6" width="6" x="-3" y="-3" /><text class="lab" transform="translate(0 11)">8</text></g><path class="edge" d="M 0 0 V -9.34846 H 27.0114" /><circle class="sym" cx="0" cy="0" r="3" /><text class="lab lft" transform="translate(-3 -7.0)">274</text></g><g class="a3991 c2 node n3717 p0" transform="translate(27.0114 0.792554)"><g class="a3717 i3 leaf node n7 p0 sample" transform="translate(13.04 9.67551)"><path class="edge" d="M 0 0 V -9.67551 H -13.04" /><rect class="sym" height="6" width="6" x="-3" y="-3" /><text class="lab" transform="translate(0 11)">7</text></g><g class="a3717 c2 node n1387 p0" transform="translate(-13.04 5.8255)"><g class="a1387 i4 leaf node n9 p0 sample" transform="translate(11.1771 3.85001)"><path class="edge" d="M 0 0 V -3.85001 H -11.1771" /><rect class="sym" height="6" width="6" x="-3" y="-3" /><text class="lab" transform="translate(0 11)">9</text></g><g class="a1387 c2 node n592 p0" transform="translate(-11.1771 1.87514)"><g class="a592 i2 leaf node n5 p0 sample" transform="translate(-7.45143 1.97487)"><path class="edge" d="M 0 0 V -1.97487 H 7.45143" /><rect class="sym" height="6" width="6" x="-3" y="-3" /><text class="lab" transform="translate(0 11)">5</text></g><g class="a592 i3 leaf node n6 p0 sample" transform="translate(7.45143 1.97487)"><path class="edge" d="M 0 0 V -1.97487 H -7.45143" /><rect class="sym" height="6" width="6" x="-3" y="-3" /><text class="lab" transform="translate(0 11)">6</text></g><path class="edge" d="M 0 0 V -1.87514 H 11.1771" /><circle class="sym" cx="0" cy="0" r="3" /><text class="lab lft" transform="translate(-3 -7.0)">592</text></g><path class="edge" d="M 0 0 V -5.8255 H 13.04" /><circle class="sym" cx="0" cy="0" r="3" /><text class="lab lft" transform="translate(-3 -7.0)">1387</text></g><path class="edge" d="M 0 0 V -0.792554 H -27.0114" /><circle class="sym" cx="0" cy="0" r="3" /><text class="lab rgt" transform="translate(3 -7.0)">3717</text></g><path class="edge" d="M 0 0 V -25.4162 H -31.2029" /><circle class="sym" cx="0" cy="0" r="3" /><text class="lab rgt" transform="translate(3 -7.0)">3991</text></g><g class="a9234 c2 node n7390 p0" transform="translate(-31.2029 11.3754)"><g class="a7390 i0 leaf node n1 p0 sample" transform="translate(13.04 24.5089)"><path class="edge" d="M 0 0 V -24.5089 H -13.04" /><rect class="sym" height="6" width="6" x="-3" y="-3" /><text class="lab" transform="translate(0 11)">1</text></g><g class="a7390 c2 node n5081 p0" transform="translate(-13.04 10.2768)"><g class="a5081 i1 leaf node n3 p0 sample" transform="translate(11.1771 14.2321)"><path class="edge" d="M 0 0 V -14.2321 H -11.1771" /><rect class="sym" height="6" width="6" x="-3" y="-3" /><text class="lab" transform="translate(0 11)">3</text></g><g class="a5081 c2 node n25 p0" transform="translate(-11.1771 14.0015)"><g class="a25 i0 leaf node n0 p0 sample" transform="translate(-7.45143 0.230621)"><path class="edge" d="M 0 0 V -0.230621 H 7.45143" /><rect class="sym" height="6" width="6" x="-3" y="-3" /><text class="lab" transform="translate(0 11)">0</text></g><g class="a25 i2 leaf node n4 p0 sample" transform="translate(7.45143 0.230621)"><path class="edge" d="M 0 0 V -0.230621 H -7.45143" /><rect class="sym" height="6" width="6" x="-3" y="-3" /><text class="lab" transform="translate(0 11)">4</text></g><path class="edge" d="M 0 0 V -14.0015 H 11.1771" /><circle class="sym" cx="0" cy="0" r="3" /><text class="lab lft" transform="translate(-3 -7.0)">25</text></g><path class="edge" d="M 0 0 V -10.2768 H 13.04" /><circle class="sym" cx="0" cy="0" r="3" /><text class="lab lft" transform="translate(-3 -7.0)">5081</text></g><path class="edge" d="M 0 0 V -11.3754 H 31.2029" /><circle class="sym" cx="0" cy="0" r="3" /><text class="lab lft" transform="translate(-3 -7.0)">7390</text></g><circle class="sym" cx="0" cy="0" r="3" /><text class="lab" transform="translate(0 -11)">9234</text></g></g></g><g class="tree t4" transform="translate(1001.94 0)"><g class="plotbox"><g class="c2 node n9234 p0 root" transform="translate(116.869 85.5157)"><g class="a9234 c2 node n7390 p0" transform="translate(-31.6686 11.3754)"><g class="a7390 i0 leaf node n1 p0 sample" transform="translate(16.7657 24.5089)"><path class="edge" d="M 0 0 V -24.5089 H -16.7657" /><rect class="sym" height="6" width="6" x="-3" y="-3" /><text class="lab" transform="translate(0 11)">1</text></g><g class="a7390 c2 node n5081 p0" transform="translate(-16.7657 10.2768)"><g class="a5081 i1 leaf node n3 p0 sample" transform="translate(18.6286 14.2321)"><path class="edge" d="M 0 0 V -14.2321 H -18.6286" /><rect class="sym" height="6" width="6" x="-3" y="-3" /><text class="lab" transform="translate(0 11)">3</text></g><g class="a5081 c2 node n2619 p0" transform="translate(-18.6286 7.57798)"><g class="a2619 c2 node n25 p0" transform="translate(-14.9029 6.42349)"><g class="a25 i0 leaf node n0 p0 sample" transform="translate(-7.45143 0.230621)"><path class="edge" d="M 0 0 V -0.230621 H 7.45143" /><rect class="sym" height="6" width="6" x="-3" y="-3" /><text class="lab" transform="translate(0 11)">0</text></g><g class="a25 i2 leaf node n4 p0 sample" transform="translate(7.45143 0.230621)"><path class="edge" d="M 0 0 V -0.230621 H -7.45143" /><rect class="sym" height="6" width="6" x="-3" y="-3" /><text class="lab" transform="translate(0 11)">4</text></g><path class="edge" d="M 0 0 V -6.42349 H 14.9029" /><circle class="sym" cx="0" cy="0" r="3" /><text class="lab lft" transform="translate(-3 -7.0)">25</text></g><g class="a2619 c2 node n274 p0" transform="translate(14.9029 5.5345)"><g class="a274 i1 leaf node n2 p0 sample" transform="translate(-7.45143 1.11961)"><path class="edge" d="M 0 0 V -1.11961 H 7.45143" /><rect class="sym" height="6" width="6" x="-3" y="-3" /><text class="lab" transform="translate(0 11)">2</text></g><g class="a274 i4 leaf node n8 p0 sample" transform="translate(7.45143 1.11961)"><path class="edge" d="M 0 0 V -1.11961 H -7.45143" /><rect class="sym" height="6" width="6" x="-3" y="-3" /><text class="lab" transform="translate(0 11)">8</text></g><path class="edge" d="M 0 0 V -5.5345 H -14.9029" /><circle class="sym" cx="0" cy="0" r="3" /><text class="lab rgt" transform="translate(3 -7.0)">274</text></g><path class="edge" d="M 0 0 V -7.57798 H 18.6286" /><circle class="sym" cx="0" cy="0" r="3" /><text class="lab lft" transform="translate(-3 -7.0)">2619</text></g><path class="edge" d="M 0 0 V -10.2768 H 16.7657" /><circle class="sym" cx="0" cy="0" r="3" /><text class="lab lft" transform="translate(-3 -7.0)">5081</text></g><path class="edge" d="M 0 0 V -11.3754 H 31.6686" /><circle class="sym" cx="0" cy="0" r="3" /><text class="lab lft" transform="translate(-3 -7.0)">7390</text></g><g class="a9234 c2 node n3717 p0" transform="translate(31.6686 26.2088)"><g class="a3717 i3 leaf node n7 p0 sample" transform="translate(13.04 9.67551)"><path class="edge" d="M 0 0 V -9.67551 H -13.04" /><rect class="sym" height="6" width="6" x="-3" y="-3" /><text class="lab" transform="translate(0 11)">7</text></g><g class="a3717 c2 node n1387 p0" transform="translate(-13.04 5.8255)"><g class="a1387 i4 leaf node n9 p0 sample" transform="translate(11.1771 3.85001)"><path class="edge" d="M 0 0 V -3.85001 H -11.1771" /><rect class="sym" height="6" width="6" x="-3" y="-3" /><text class="lab" transform="translate(0 11)">9</text></g><g class="a1387 c2 node n592 p0" transform="translate(-11.1771 1.87514)"><g class="a592 i2 leaf node n5 p0 sample" transform="translate(-7.45143 1.97487)"><path class="edge" d="M 0 0 V -1.97487 H 7.45143" /><rect class="sym" height="6" width="6" x="-3" y="-3" /><text class="lab" transform="translate(0 11)">5</text></g><g class="a592 i3 leaf node n6 p0 sample" transform="translate(7.45143 1.97487)"><path class="edge" d="M 0 0 V -1.97487 H -7.45143" /><rect class="sym" height="6" width="6" x="-3" y="-3" /><text class="lab" transform="translate(0 11)">6</text></g><path class="edge" d="M 0 0 V -1.87514 H 11.1771" /><circle class="sym" cx="0" cy="0" r="3" /><text class="lab lft" transform="translate(-3 -7.0)">592</text></g><path class="edge" d="M 0 0 V -5.8255 H 13.04" /><circle class="sym" cx="0" cy="0" r="3" /><text class="lab lft" transform="translate(-3 -7.0)">1387</text></g><path class="edge" d="M 0 0 V -26.2088 H -31.6686" /><circle class="sym" cx="0" cy="0" r="3" /><text class="lab rgt" transform="translate(3 -7.0)">3717</text></g><circle class="sym" cx="0" cy="0" r="3" /><text class="lab" transform="translate(0 -11)">9234</text></g></g></g><g class="tree t5" transform="translate(1190.97 0)"><g class="plotbox"><g class="c2 node n9234 p0 root" transform="translate(96.8429 85.5157)"><g class="a9234 c2 node n7390 p0" transform="translate(-28.4086 11.3754)"><g class="a7390 i0 leaf node n1 p0 sample" transform="translate(18.6286 24.5089)"><path class="edge" d="M 0 0 V -24.5089 H -18.6286" /><rect class="sym" height="6" width="6" x="-3" y="-3" /><text class="lab" transform="translate(0 11)">1</text></g><g class="a7390 c2 node n2619 p0" transform="translate(-18.6286 17.8547)"><g class="a2619 c2 node n25 p0" transform="translate(-14.9029 6.42349)"><g class="a25 i0 leaf node n0 p0 sample" transform="translate(-7.45143 0.230621)"><path class="edge" d="M 0 0 V -0.230621 H 7.45143" /><rect class="sym" height="6" width="6" x="-3" y="-3" /><text class="lab" transform="translate(0 11)">0</text></g><g class="a25 i2 leaf node n4 p0 sample" transform="translate(7.45143 0.230621)"><path class="edge" d="M 0 0 V -0.230621 H -7.45143" /><rect class="sym" height="6" width="6" x="-3" y="-3" /><text class="lab" transform="translate(0 11)">4</text></g><path class="edge" d="M 0 0 V -6.42349 H 14.9029" /><circle class="sym" cx="0" cy="0" r="3" /><text class="lab lft" transform="translate(-3 -7.0)">25</text></g><g class="a2619 c2 node n274 p0" transform="translate(14.9029 5.5345)"><g class="a274 i1 leaf node n2 p0 sample" transform="translate(-7.45143 1.11961)"><path class="edge" d="M 0 0 V -1.11961 H 7.45143" /><rect class="sym" height="6" width="6" x="-3" y="-3" /><text class="lab" transform="translate(0 11)">2</text></g><g class="a274 i4 leaf node n8 p0 sample" transform="translate(7.45143 1.11961)"><path class="edge" d="M 0 0 V -1.11961 H -7.45143" /><rect class="sym" height="6" width="6" x="-3" y="-3" /><text class="lab" transform="translate(0 11)">8</text></g><path class="edge" d="M 0 0 V -5.5345 H -14.9029" /><circle class="sym" cx="0" cy="0" r="3" /><text class="lab rgt" transform="translate(3 -7.0)">274</text></g><path class="edge" d="M 0 0 V -17.8547 H 18.6286" /><circle class="sym" cx="0" cy="0" r="3" /><text class="lab lft" transform="translate(-3 -7.0)">2619</text></g><path class="edge" d="M 0 0 V -11.3754 H 28.4086" /><circle class="sym" cx="0" cy="0" r="3" /><text class="lab lft" transform="translate(-3 -7.0)">7390</text></g><g class="a9234 c2 node n3991 p0" transform="translate(28.4086 25.4162)"><g class="a3991 i1 leaf node n3 p0 sample" transform="translate(-23.2857 10.4681)"><path class="edge" d="M 0 0 V -10.4681 H 23.2857" /><rect class="sym" height="6" width="6" x="-3" y="-3" /><text class="lab" transform="translate(0 11)">3</text></g><g class="a3991 c2 node n3717 p0" transform="translate(23.2857 0.792554)"><g class="a3717 i3 leaf node n7 p0 sample" transform="translate(13.04 9.67551)"><path class="edge" d="M 0 0 V -9.67551 H -13.04" /><rect class="sym" height="6" width="6" x="-3" y="-3" /><text class="lab" transform="translate(0 11)">7</text></g><g class="a3717 c2 node n1387 p0" transform="translate(-13.04 5.8255)"><g class="a1387 i4 leaf node n9 p0 sample" transform="translate(11.1771 3.85001)"><path class="edge" d="M 0 0 V -3.85001 H -11.1771" /><rect class="sym" height="6" width="6" x="-3" y="-3" /><text class="lab" transform="translate(0 11)">9</text></g><g class="a1387 c2 node n592 p0" transform="translate(-11.1771 1.87514)"><g class="a592 i2 leaf node n5 p0 sample" transform="translate(-7.45143 1.97487)"><path class="edge" d="M 0 0 V -1.97487 H 7.45143" /><rect class="sym" height="6" width="6" x="-3" y="-3" /><text class="lab" transform="translate(0 11)">5</text></g><g class="a592 i3 leaf node n6 p0 sample" transform="translate(7.45143 1.97487)"><path class="edge" d="M 0 0 V -1.97487 H -7.45143" /><rect class="sym" height="6" width="6" x="-3" y="-3" /><text class="lab" transform="translate(0 11)">6</text></g><path class="edge" d="M 0 0 V -1.87514 H 11.1771" /><circle class="sym" cx="0" cy="0" r="3" /><text class="lab lft" transform="translate(-3 -7.0)">592</text></g><path class="edge" d="M 0 0 V -5.8255 H 13.04" /><circle class="sym" cx="0" cy="0" r="3" /><text class="lab lft" transform="translate(-3 -7.0)">1387</text></g><path class="edge" d="M 0 0 V -0.792554 H -23.2857" /><circle class="sym" cx="0" cy="0" r="3" /><text class="lab rgt" transform="translate(3 -7.0)">3717</text></g><path class="edge" d="M 0 0 V -25.4162 H -28.4086" /><circle class="sym" cx="0" cy="0" r="3" /><text class="lab rgt" transform="translate(3 -7.0)">3991</text></g><circle class="sym" cx="0" cy="0" r="3" /><text class="lab" transform="translate(0 -11)">9234</text></g></g></g></g></g></svg>
