<svg baseProfile="full" height="200" version="1.1" width="1000" xmlns="http://www.w3.org/2000/svg" xmlns:ev="http://www.w3.org/2001/xml-events" xmlns:xlink="http://www.w3.org/1999/xlink"><defs><style type="text/css"><![CDATA[.background path {fill: #808080; fill-opacity: 0}.background path:nth-child(odd) {fill-opacity: .1}.axes {font-size: 14px}.x-axis .tick .lab {font-weight: bold; dominant-baseline: hanging}.axes, .tree {font-size: 14px; text-anchor: middle}.axes line, .edge {stroke: black; fill: none}.axes .ax-skip {stroke-dasharray: 4}.y-axis .grid {stroke: #FAFAFA}.node > .sym {fill: black; stroke: none}.site > .sym {stroke: black}.mut text {fill: red; font-style: italic}.mut.extra text {fill: hotpink}.mut line {fill: none; stroke: none}.mut .sym {fill: none; stroke: red}.mut.extra .sym {stroke: hotpink}.node .mut .sym {stroke-width: 1.5px}.tree text, .tree-sequence text {dominant-baseline: central}.plotbox .lab.lft {text-anchor: end}.plotbox .lab.rgt {text-anchor: start}]]></style></defs><g class="tree-sequence"><g class="background"><path d="M20,0 l192,0 l0,138.2 l-187.76,25 l0,5 l-4.23963,0 l0,-5 l0,-25 l0,-138.2z" /><path d="M212,0 l192,0 l0,138.2 l24.1106,25 l0,5 l-403.871,0 l0,-5 l187.76,-25 l0,-138.2z" /><path d="M404,0 l192,0 l0,138.2 l130.175,25 l0,5 l-298.065,0 l0,-5 l-24.111,-25 l0,-138.2z" /><path d="M596,0 l192,0 l0,138.2 l-50.765,25 l0,5 l-11.0599,0 l0,-5 l-130.175,-25 l0,-138.2z" /><path d="M788,0 l192,0 l0,138.2 l0,25 l0,5 l-242.765,0 l0,-5 l50.765,-25 l0,-138.2z" /></g><g class="axes"><g class="x-axis"><g class="title" transform="translate(500 200)"><text class="lab" text-anchor="middle" transform="translate(0 -11)">Genome position</text></g><line class="ax-line" x1="20" x2="980" y1="163.2" y2="163.2" /><g class="ticks"><g class="tick" transform="translate(20 163.2)"><line x1="0" x2="0" y1="0" y2="5" /><g transform="translate(0 6)"><text class="lab">0</text></g></g><g class="tick" transform="translate(24.2396 163.2)"><line x1="0" x2="0" y1="0" y2="5" /><g transform="translate(0 6)"><text class="lab">23</text></g></g><g class="tick" transform="translate(428.111 163.2)"><line x1="0" x2="0" y1="0" y2="5" /><g transform="translate(0 6)"><text class="lab">2214</text></g></g><g class="tick" transform="translate(726.175 163.2)"><line x1="0" x2="0" y1="0" y2="5" /><g transform="translate(0 6)"><text class="lab">3831</text></g></g><g class="tick" transform="translate(737.235 163.2)"><line x1="0" x2="0" y1="0" y2="5" /><g transform="translate(0 6)"><text class="lab">3891</text></g></g></g></g></g><g class="plotbox trees"><g class="tree t-1" transform="translate(20 0)"><g class="plotbox"><g class="c2 node n10507 p0 root" transform="translate(103.125 26.8)"><g class="a10507 c2 node n9897 p0" transform="translate(-39.425 10.8039)"><g class="a9897 c2 node n3432 p0" transform="translate(17.1 64.218)"><g class="a3432 i1 leaf node n3 p0 sample" transform="translate(-7.6 19.5781)"><path class="edge" d="M 0 0 V -19.5781 H 7.6" /><rect class="sym" height="6" width="6" x="-3" y="-3" /><text class="lab" transform="translate(0 11)">3</text></g><g class="a3432 i4 leaf node n9 p0 sample" transform="translate(7.6 19.5781)"><path class="edge" d="M 0 0 V -19.5781 H -7.6" /><rect class="sym" height="6" width="6" x="-3" y="-3" /><text class="lab" transform="translate(0 11)">9</text></g><path class="edge" d="M 0 0 V -64.218 H -17.1" /><circle class="sym" cx="0" cy="0" r="3" /><text class="lab rgt" transform="translate(3 -7.0)">3432</text></g><g class="a9897 c2 node n4452 p0" transform="translate(-17.1 57.8809)"><g class="a4452 i3 leaf node n6 p0 sample" transform="translate(11.4 25.9153)"><path class="edge" d="M 0 0 V -25.9153 H -11.4" /><rect class="sym" height="6" width="6" x="-3" y="-3" /><text class="lab" transform="translate(0 11)">6</text></g><g class="a4452 c2 node n37 p0" transform="translate(-11.4 25.0734)"><g class="a37 i0 leaf node n0 p0 sample" transform="translate(-7.6 0.841844)"><path class="edge" d="M 0 0 V -0.841844 H 7.6" /><rect class="sym" height="6" width="6" x="-3" y="-3" /><text class="lab" transform="translate(0 11)">0</text></g><g class="a37 i4 leaf node n8 p0 sample" transform="translate(7.6 0.841844)"><path class="edge" d="M 0 0 V -0.841844 H -7.6" /><rect class="sym" height="6" width="6" x="-3" y="-3" /><text class="lab" transform="translate(0 11)">8</text></g><path class="edge" d="M 0 0 V -25.0734 H 11.4" /><circle class="sym" cx="0" cy="0" r="3" /><text class="lab lft" transform="translate(-3 -7.0)">37</text></g><path class="edge" d="M 0 0 V -57.8809 H 17.1" /><circle class="sym" cx="0" cy="0" r="3" /><text class="lab lft" transform="translate(-3 -7.0)">4452</text></g><path class="edge" d="M 0 0 V -10.8039 H 39.425" /><circle class="sym" cx="0" cy="0" r="3" /><text class="lab lft" transform="translate(-3 -7.0)">9897</text></g><g class="a10507 c2 node n10357 p0" transform="translate(39.425 2.78011)"><g class="a10357 i3 leaf node n7 p0 sample" transform="translate(21.85 91.8199)"><path class="edge" d="M 0 0 V -91.8199 H -21.85" /><rect class="sym" height="6" width="6" x="-3" y="-3" /><text class="lab" transform="translate(0 11)">7</text></g><g class="a10357 c2 node n6469 p0" transform="translate(-21.85 49.8278)"><g class="a6469 i0 leaf node n1 p0 sample" transform="translate(-17.1 41.992)"><path class="edge" d="M 0 0 V -41.992 H 17.1" /><rect class="sym" height="6" width="6" x="-3" y="-3" /><text class="lab" transform="translate(0 11)">1</text></g><g class="a6469 c2 node n1064 p0" transform="translate(17.1 34.9393)"><g class="a1064 i2 leaf node n5 p0 sample" transform="translate(11.4 7.05278)"><path class="edge" d="M 0 0 V -7.05278 H -11.4" /><rect class="sym" height="6" width="6" x="-3" y="-3" /><text class="lab" transform="translate(0 11)">5</text></g><g class="a1064 c2 node n1003 p0" transform="translate(-11.4 0.29156)"><g class="a1003 i1 leaf node n2 p0 sample" transform="translate(-7.6 6.76122)"><path class="edge" d="M 0 0 V -6.76122 H 7.6" /><rect class="sym" height="6" width="6" x="-3" y="-3" /><text class="lab" transform="translate(0 11)">2</text></g><g class="a1003 i2 leaf node n4 p0 sample" transform="translate(7.6 6.76122)"><path class="edge" d="M 0 0 V -6.76122 H -7.6" /><rect class="sym" height="6" width="6" x="-3" y="-3" /><text class="lab" transform="translate(0 11)">4</text></g><path class="edge" d="M 0 0 V -0.29156 H 11.4" /><circle class="sym" cx="0" cy="0" r="3" /><text class="lab lft" transform="translate(-3 -7.0)">1003</text></g><path class="edge" d="M 0 0 V -34.9393 H -17.1" /><circle class="sym" cx="0" cy="0" r="3" /><text class="lab rgt" transform="translate(3 -7.0)">1064</text></g><path class="edge" d="M 0 0 V -49.8278 H 21.85" /><circle class="sym" cx="0" cy="0" r="3" /><text class="lab lft" transform="translate(-3 -7.0)">6469</text></g><path class="edge" d="M 0 0 V -2.78011 H -39.425" /><circle class="sym" cx="0" cy="0" r="3" /><text class="lab rgt" transform="translate(3 -7.0)">10357</text></g><circle class="sym" cx="0" cy="0" r="3" /><text class="lab" transform="translate(0 -11)">10507</text></g></g></g><g class="tree t0" transform="translate(212 0)"><g class="plotbox"><g class="c2 node n10507 p0 root" transform="translate(114.525 26.8)"><g class="a10507 c2 node n9897 p0" transform="translate(-36.575 10.8039)"><g class="a9897 c2 node n3432 p0" transform="translate(18.05 64.218)"><g class="a3432 i1 leaf node n3 p0 sample" transform="translate(-7.6 19.5781)"><path class="edge" d="M 0 0 V -19.5781 H 7.6" /><rect class="sym" height="6" width="6" x="-3" y="-3" /><text class="lab" transform="translate(0 11)">3</text></g><g class="a3432 i4 leaf node n9 p0 sample" transform="translate(7.6 19.5781)"><path class="edge" d="M 0 0 V -19.5781 H -7.6" /><rect class="sym" height="6" width="6" x="-3" y="-3" /><text class="lab" transform="translate(0 11)">9</text></g><path class="edge" d="M 0 0 V -64.218 H -18.05" /><circle class="sym" cx="0" cy="0" r="3" /><text class="lab rgt" transform="translate(3 -7.0)">3432</text></g><g class="a9897 c2 node n4452 p0" transform="translate(-18.05 57.8809)"><g class="a4452 i3 leaf node n6 p0 sample" transform="translate(13.3 25.9153)"><path class="edge" d="M 0 0 V -25.9153 H -13.3" /><rect class="sym" height="6" width="6" x="-3" y="-3" /><text class="lab" transform="translate(0 11)">6</text></g><g class="a4452 c2 node n3257 p0" transform="translate(-13.3 7.41319)"><g class="a3257 i0 leaf node n1 p0 sample" transform="translate(11.4 18.5021)"><path class="edge" d="M 0 0 V -18.5021 H -11.4" /><rect class="sym" height="6" width="6" x="-3" y="-3" /><text class="lab" transform="translate(0 11)">1</text></g><g class="a3257 c2 node n37 p0" transform="translate(-11.4 17.6602)"><g class="a37 i0 leaf node n0 p0 sample" transform="translate(-7.6 0.841844)"><path class="edge" d="M 0 0 V -0.841844 H 7.6" /><rect class="sym" height="6" width="6" x="-3" y="-3" /><text class="lab" transform="translate(0 11)">0</text></g><g class="a37 i4 leaf node n8 p0 sample" transform="translate(7.6 0.841844)"><path class="edge" d="M 0 0 V -0.841844 H -7.6" /><rect class="sym" height="6" width="6" x="-3" y="-3" /><text class="lab" transform="translate(0 11)">8</text></g><path class="edge" d="M 0 0 V -17.6602 H 11.4" /><circle class="sym" cx="0" cy="0" r="3" /><text class="lab lft" transform="translate(-3 -7.0)">37</text></g><path class="edge" d="M 0 0 V -7.41319 H 13.3" /><circle class="sym" cx="0" cy="0" r="3" /><text class="lab lft" transform="translate(-3 -7.0)">3257</text></g><path class="edge" d="M 0 0 V -57.8809 H 18.05" /><circle class="sym" cx="0" cy="0" r="3" /><text class="lab lft" transform="translate(-3 -7.0)">4452</text></g><path class="edge" d="M 0 0 V -10.8039 H 36.575" /><circle class="sym" cx="0" cy="0" r="3" /><text class="lab lft" transform="translate(-3 -7.0)">9897</text></g><g class="a10507 c2 node n10357 p0" transform="translate(36.575 2.78011)"><g class="a10357 i3 leaf node n7 p0 sample" transform="translate(13.3 91.8199)"><path class="edge" d="M 0 0 V -91.8199 H -13.3" /><rect class="sym" height="6" width="6" x="-3" y="-3" /><text class="lab" transform="translate(0 11)">7</text></g><g class="a10357 c2 node n1064 p0" transform="translate(-13.3 84.7671)"><g class="a1064 i2 leaf node n5 p0 sample" transform="translate(11.4 7.05278)"><path class="edge" d="M 0 0 V -7.05278 H -11.4" /><rect class="sym" height="6" width="6" x="-3" y="-3" /><text class="lab" transform="translate(0 11)">5</text></g><g class="a1064 c2 node n1003 p0" transform="translate(-11.4 0.29156)"><g class="a1003 i1 leaf node n2 p0 sample" transform="translate(-7.6 6.76122)"><path class="edge" d="M 0 0 V -6.76122 H 7.6" /><rect class="sym" height="6" width="6" x="-3" y="-3" /><text class="lab" transform="translate(0 11)">2</text></g><g class="a1003 i2 leaf node n4 p0 sample" transform="translate(7.6 6.76122)"><path class="edge" d="M 0 0 V -6.76122 H -7.6" /><rect class="sym" height="6" width="6" x="-3" y="-3" /><text class="lab" transform="translate(0 11)">4</text></g><path class="edge" d="M 0 0 V -0.29156 H 11.4" /><circle class="sym" cx="0" cy="0" r="3" /><text class="lab lft" transform="translate(-3 -7.0)">1003</text></g><path class="edge" d="M 0 0 V -84.7671 H 13.3" /><circle class="sym" cx="0" cy="0" r="3" /><text class="lab lft" transform="translate(-3 -7.0)">1064</text></g><path class="edge" d="M 0 0 V -2.78011 H -36.575" /><circle class="sym" cx="0" cy="0" r="3" /><text class="lab rgt" transform="translate(3 -7.0)">10357</text></g><circle class="sym" cx="0" cy="0" r="3" /><text class="lab" transform="translate(0 -11)">10507</text></g></g></g><g class="tree t1" transform="translate(404 0)"><g class="plotbox"><g class="c2 node n10507 p0 root" transform="translate(123.55 26.8)"><g class="a10507 c2 node n9897 p0" transform="translate(29.45 10.8039)"><g class="a9897 c2 node n3432 p0" transform="translate(-11.4 64.218)"><g class="a3432 i1 leaf node n3 p0 sample" transform="translate(-7.6 19.5781)"><path class="edge" d="M 0 0 V -19.5781 H 7.6" /><rect class="sym" height="6" width="6" x="-3" y="-3" /><text class="lab" transform="translate(0 11)">3</text></g><g class="a3432 i4 leaf node n9 p0 sample" transform="translate(7.6 19.5781)"><path class="edge" d="M 0 0 V -19.5781 H -7.6" /><rect class="sym" height="6" width="6" x="-3" y="-3" /><text class="lab" transform="translate(0 11)">9</text></g><path class="edge" d="M 0 0 V -64.218 H 11.4" /><circle class="sym" cx="0" cy="0" r="3" /><text class="lab lft" transform="translate(-3 -7.0)">3432</text></g><g class="a9897 i3 leaf node n6 p0 sample" transform="translate(11.4 83.7961)"><path class="edge" d="M 0 0 V -83.7961 H -11.4" /><rect class="sym" height="6" width="6" x="-3" y="-3" /><text class="lab" transform="translate(0 11)">6</text></g><path class="edge" d="M 0 0 V -10.8039 H -29.45" /><circle class="sym" cx="0" cy="0" r="3" /><text class="lab rgt" transform="translate(3 -7.0)">9897</text></g><g class="a10507 c2 node n10357 p0" transform="translate(-29.45 2.78011)"><g class="a10357 i3 leaf node n7 p0 sample" transform="translate(24.7 91.8199)"><path class="edge" d="M 0 0 V -91.8199 H -24.7" /><rect class="sym" height="6" width="6" x="-3" y="-3" /><text class="lab" transform="translate(0 11)">7</text></g><g class="a10357 c2 node n3627 p0" transform="translate(-24.7 71.0622)"><g class="a3627 c2 node n1064 p0" transform="translate(22.8 13.7049)"><g class="a1064 i2 leaf node n5 p0 sample" transform="translate(11.4 7.05278)"><path class="edge" d="M 0 0 V -7.05278 H -11.4" /><rect class="sym" height="6" width="6" x="-3" y="-3" /><text class="lab" transform="translate(0 11)">5</text></g><g class="a1064 c2 node n1003 p0" transform="translate(-11.4 0.29156)"><g class="a1003 i1 leaf node n2 p0 sample" transform="translate(-7.6 6.76122)"><path class="edge" d="M 0 0 V -6.76122 H 7.6" /><rect class="sym" height="6" width="6" x="-3" y="-3" /><text class="lab" transform="translate(0 11)">2</text></g><g class="a1003 i2 leaf node n4 p0 sample" transform="translate(7.6 6.76122)"><path class="edge" d="M 0 0 V -6.76122 H -7.6" /><rect class="sym" height="6" width="6" x="-3" y="-3" /><text class="lab" transform="translate(0 11)">4</text></g><path class="edge" d="M 0 0 V -0.29156 H 11.4" /><circle class="sym" cx="0" cy="0" r="3" /><text class="lab lft" transform="translate(-3 -7.0)">1003</text></g><path class="edge" d="M 0 0 V -13.7049 H -22.8" /><circle class="sym" cx="0" cy="0" r="3" /><text class="lab rgt" transform="translate(3 -7.0)">1064</text></g><g class="a3627 c2 node n3257 p0" transform="translate(-22.8 2.25559)"><g class="a3257 i0 leaf node n1 p0 sample" transform="translate(11.4 18.5021)"><path class="edge" d="M 0 0 V -18.5021 H -11.4" /><rect class="sym" height="6" width="6" x="-3" y="-3" /><text class="lab" transform="translate(0 11)">1</text></g><g class="a3257 c2 node n37 p0" transform="translate(-11.4 17.6602)"><g class="a37 i0 leaf node n0 p0 sample" transform="translate(-7.6 0.841844)"><path class="edge" d="M 0 0 V -0.841844 H 7.6" /><rect class="sym" height="6" width="6" x="-3" y="-3" /><text class="lab" transform="translate(0 11)">0</text></g><g class="a37 i4 leaf node n8 p0 sample" transform="translate(7.6 0.841844)"><path class="edge" d="M 0 0 V -0.841844 H -7.6" /><rect class="sym" height="6" width="6" x="-3" y="-3" /><text class="lab" transform="translate(0 11)">8</text></g><path class="edge" d="M 0 0 V -17.6602 H 11.4" /><circle class="sym" cx="0" cy="0" r="3" /><text class="lab lft" transform="translate(-3 -7.0)">37</text></g><path class="edge" d="M 0 0 V -2.25559 H 22.8" /><circle class="sym" cx="0" cy="0" r="3" /><text class="lab lft" transform="translate(-3 -7.0)">3257</text></g><path class="edge" d="M 0 0 V -71.0622 H 24.7" /><circle class="sym" cx="0" cy="0" r="3" /><text class="lab lft" transform="translate(-3 -7.0)">3627</text></g><path class="edge" d="M 0 0 V -2.78011 H 29.45" /><circle class="sym" cx="0" cy="0" r="3" /><text class="lab lft" transform="translate(-3 -7.0)">10357</text></g><circle class="sym" cx="0" cy="0" r="3" /><text class="lab" transform="translate(0 -11)">10507</text></g></g></g><g class="tree t2" transform="translate(596 0)"><g class="plotbox"><g class="c2 node n10507 p0 root" transform="translate(114.525 26.8)"><g class="a10507 c2 node n9897 p0" transform="translate(38.475 10.8039)"><g class="a9897 c2 node n3432 p0" transform="translate(-11.4 64.218)"><g class="a3432 i1 leaf node n3 p0 sample" transform="translate(-7.6 19.5781)"><path class="edge" d="M 0 0 V -19.5781 H 7.6" /><rect class="sym" height="6" width="6" x="-3" y="-3" /><text class="lab" transform="translate(0 11)">3</text></g><g class="a3432 i4 leaf node n9 p0 sample" transform="translate(7.6 19.5781)"><path class="edge" d="M 0 0 V -19.5781 H -7.6" /><rect class="sym" height="6" width="6" x="-3" y="-3" /><text class="lab" transform="translate(0 11)">9</text></g><path class="edge" d="M 0 0 V -64.218 H 11.4" /><circle class="sym" cx="0" cy="0" r="3" /><text class="lab lft" transform="translate(-3 -7.0)">3432</text></g><g class="a9897 i3 leaf node n6 p0 sample" transform="translate(11.4 83.7961)"><path class="edge" d="M 0 0 V -83.7961 H -11.4" /><rect class="sym" height="6" width="6" x="-3" y="-3" /><text class="lab" transform="translate(0 11)">6</text></g><path class="edge" d="M 0 0 V -10.8039 H -38.475" /><circle class="sym" cx="0" cy="0" r="3" /><text class="lab rgt" transform="translate(3 -7.0)">9897</text></g><g class="a10507 c2 node n10357 p0" transform="translate(-38.475 2.78011)"><g class="a10357 c2 node n3257 p0" transform="translate(-29.45 73.3178)"><g class="a3257 i0 leaf node n1 p0 sample" transform="translate(11.4 18.5021)"><path class="edge" d="M 0 0 V -18.5021 H -11.4" /><rect class="sym" height="6" width="6" x="-3" y="-3" /><text class="lab" transform="translate(0 11)">1</text></g><g class="a3257 c2 node n37 p0" transform="translate(-11.4 17.6602)"><g class="a37 i0 leaf node n0 p0 sample" transform="translate(-7.6 0.841844)"><path class="edge" d="M 0 0 V -0.841844 H 7.6" /><rect class="sym" height="6" width="6" x="-3" y="-3" /><text class="lab" transform="translate(0 11)">0</text></g><g class="a37 i4 leaf node n8 p0 sample" transform="translate(7.6 0.841844)"><path class="edge" d="M 0 0 V -0.841844 H -7.6" /><rect class="sym" height="6" width="6" x="-3" y="-3" /><text class="lab" transform="translate(0 11)">8</text></g><path class="edge" d="M 0 0 V -17.6602 H 11.4" /><circle class="sym" cx="0" cy="0" r="3" /><text class="lab lft" transform="translate(-3 -7.0)">37</text></g><path class="edge" d="M 0 0 V -73.3178 H 29.45" /><circle class="sym" cx="0" cy="0" r="3" /><text class="lab lft" transform="translate(-3 -7.0)">3257</text></g><g class="a10357 c2 node n4435 p0" transform="translate(29.45 65.9773)"><g class="a4435 i3 leaf node n7 p0 sample" transform="translate(13.3 25.8426)"><path class="edge" d="M 0 0 V -25.8426 H -13.3" /><rect class="sym" height="6" width="6" x="-3" y="-3" /><text class="lab" transform="translate(0 11)">7</text></g><g class="a4435 c2 node n1064 p0" transform="translate(-13.3 18.7898)"><g class="a1064 i2 leaf node n5 p0 sample" transform="translate(11.4 7.05278)"><path class="edge" d="M 0 0 V -7.05278 H -11.4" /><rect class="sym" height="6" width="6" x="-3" y="-3" /><text class="lab" transform="translate(0 11)">5</text></g><g class="a1064 c2 node n1003 p0" transform="translate(-11.4 0.29156)"><g class="a1003 i1 leaf node n2 p0 sample" transform="translate(-7.6 6.76122)"><path class="edge" d="M 0 0 V -6.76122 H 7.6" /><rect class="sym" height="6" width="6" x="-3" y="-3" /><text class="lab" transform="translate(0 11)">2</text></g><g class="a1003 i2 leaf node n4 p0 sample" transform="translate(7.6 6.76122)"><path class="edge" d="M 0 0 V -6.76122 H -7.6" /><rect class="sym" height="6" width="6" x="-3" y="-3" /><text class="lab" transform="translate(0 11)">4</text></g><path class="edge" d="M 0 0 V -0.29156 H 11.4" /><circle class="sym" cx="0" cy="0" r="3" /><text class="lab lft" transform="translate(-3 -7.0)">1003</text></g><path class="edge" d="M 0 0 V -18.7898 H 13.3" /><circle class="sym" cx="0" cy="0" r="3" /><text class="lab lft" transform="translate(-3 -7.0)">1064</text></g><path class="edge" d="M 0 0 V -65.9773 H -29.45" /><circle class="sym" cx="0" cy="0" r="3" /><text class="lab rgt" transform="translate(3 -7.0)">4435</text></g><path class="edge" d="M 0 0 V -2.78011 H 38.475" /><circle class="sym" cx="0" cy="0" r="3" /><text class="lab lft" transform="translate(-3 -7.0)">10357</text></g><circle class="sym" cx="0" cy="0" r="3" /><text class="lab" transform="translate(0 -11)">10507</text></g></g></g><g class="tree t3" transform="translate(788 0)"><g class="plotbox"><g class="c2 node n10507 p0 root" transform="translate(114.525 26.8)"><g class="a10507 c2 node n9897 p0" transform="translate(-36.575 10.8039)"><g class="a9897 c2 node n3432 p0" transform="translate(18.05 64.218)"><g class="a3432 i1 leaf node n3 p0 sample" transform="translate(-7.6 19.5781)"><path class="edge" d="M 0 0 V -19.5781 H 7.6" /><rect class="sym" height="6" width="6" x="-3" y="-3" /><text class="lab" transform="translate(0 11)">3</text></g><g class="a3432 i4 leaf node n9 p0 sample" transform="translate(7.6 19.5781)"><path class="edge" d="M 0 0 V -19.5781 H -7.6" /><rect class="sym" height="6" width="6" x="-3" y="-3" /><text class="lab" transform="translate(0 11)">9</text></g><path class="edge" d="M 0 0 V -64.218 H -18.05" /><circle class="sym" cx="0" cy="0" r="3" /><text class="lab rgt" transform="translate(3 -7.0)">3432</text></g><g class="a9897 c2 node n8216 p0" transform="translate(-18.05 23.5532)"><g class="a8216 i3 leaf node n6 p0 sample" transform="translate(13.3 60.2429)"><path class="edge" d="M 0 0 V -60.2429 H -13.3" /><rect class="sym" height="6" width="6" x="-3" y="-3" /><text class="lab" transform="translate(0 11)">6</text></g><g class="a8216 c2 node n3257 p0" transform="translate(-13.3 41.7408)"><g class="a3257 i0 leaf node n1 p0 sample" transform="translate(11.4 18.5021)"><path class="edge" d="M 0 0 V -18.5021 H -11.4" /><rect class="sym" height="6" width="6" x="-3" y="-3" /><text class="lab" transform="translate(0 11)">1</text></g><g class="a3257 c2 node n37 p0" transform="translate(-11.4 17.6602)"><g class="a37 i0 leaf node n0 p0 sample" transform="translate(-7.6 0.841844)"><path class="edge" d="M 0 0 V -0.841844 H 7.6" /><rect class="sym" height="6" width="6" x="-3" y="-3" /><text class="lab" transform="translate(0 11)">0</text></g><g class="a37 i4 leaf node n8 p0 sample" transform="translate(7.6 0.841844)"><path class="edge" d="M 0 0 V -0.841844 H -7.6" /><rect class="sym" height="6" width="6" x="-3" y="-3" /><text class="lab" transform="translate(0 11)">8</text></g><path class="edge" d="M 0 0 V -17.6602 H 11.4" /><circle class="sym" cx="0" cy="0" r="3" /><text class="lab lft" transform="translate(-3 -7.0)">37</text></g><path class="edge" d="M 0 0 V -41.7408 H 13.3" /><circle class="sym" cx="0" cy="0" r="3" /><text class="lab lft" transform="translate(-3 -7.0)">3257</text></g><path class="edge" d="M 0 0 V -23.5532 H 18.05" /><circle class="sym" cx="0" cy="0" r="3" /><text class="lab lft" transform="translate(-3 -7.0)">8216</text></g><path class="edge" d="M 0 0 V -10.8039 H 36.575" /><circle class="sym" cx="0" cy="0" r="3" /><text class="lab lft" transform="translate(-3 -7.0)">9897</text></g><g class="a10507 c2 node n4435 p0" transform="translate(36.575 68.7574)"><g class="a4435 i3 leaf node n7 p0 sample" transform="translate(13.3 25.8426)"><path class="edge" d="M 0 0 V -25.8426 H -13.3" /><rect class="sym" height="6" width="6" x="-3" y="-3" /><text class="lab" transform="translate(0 11)">7</text></g><g class="a4435 c2 node n1064 p0" transform="translate(-13.3 18.7898)"><g class="a1064 i2 leaf node n5 p0 sample" transform="translate(11.4 7.05278)"><path class="edge" d="M 0 0 V -7.05278 H -11.4" /><rect class="sym" height="6" width="6" x="-3" y="-3" /><text class="lab" transform="translate(0 11)">5</text></g><g class="a1064 c2 node n1003 p0" transform="translate(-11.4 0.29156)"><g class="a1003 i1 leaf node n2 p0 sample" transform="translate(-7.6 6.76122)"><path class="edge" d="M 0 0 V -6.76122 H 7.6" /><rect class="sym" height="6" width="6" x="-3" y="-3" /><text class="lab" transform="translate(0 11)">2</text></g><g class="a1003 i2 leaf node n4 p0 sample" transform="translate(7.6 6.76122)"><path class="edge" d="M 0 0 V -6.76122 H -7.6" /><rect class="sym" height="6" width="6" x="-3" y="-3" /><text class="lab" transform="translate(0 11)">4</text></g><path class="edge" d="M 0 0 V -0.29156 H 11.4" /><circle class="sym" cx="0" cy="0" r="3" /><text class="lab lft" transform="translate(-3 -7.0)">1003</text></g><path class="edge" d="M 0 0 V -18.7898 H 13.3" /><circle class="sym" cx="0" cy="0" r="3" /><text class="lab lft" transform="translate(-3 -7.0)">1064</text></g><path class="edge" d="M 0 0 V -68.7574 H -36.575" /><circle class="sym" cx="0" cy="0" r="3" /><text class="lab rgt" transform="translate(3 -7.0)">4435</text></g><circle class="sym" cx="0" cy="0" r="3" /><text class="lab" transform="translate(0 -11)">10507</text></g></g></g></g></g></svg>
