<svg baseProfile="full" height="200" version="1.1" width="1400" xmlns="http://www.w3.org/2000/svg" xmlns:ev="http://www.w3.org/2001/xml-events" xmlns:xlink="http://www.w3.org/1999/xlink"><defs><style type="text/css"><![CDATA[.background path {fill: #808080; fill-opacity: 0}.background path:nth-child(odd) {fill-opacity: .1}.axes {font-size: 14px}.x-axis .tick .lab {font-weight: bold; dominant-baseline: hanging}.axes, .tree {font-size: 14px; text-anchor: middle}.axes line, .edge {stroke: black; fill: none}.axes .ax-skip {stroke-dasharray: 4}.y-axis .grid {stroke: #FAFAFA}.node > .sym {fill: black; stroke: none}.site > .sym {stroke: black}.mut text {fill: red; font-style: italic}.mut.extra text {fill: hotpink}.mut line {fill: none; stroke: none}.mut .sym {fill: none; stroke: red}.mut.extra .sym {stroke: hotpink}.node .mut .sym {stroke-width: 1.5px}.tree text, .tree-sequence text {dominant-baseline: central}.plotbox .lab.lft {text-anchor: end}.plotbox .lab.rgt {text-anchor: start}]]></style></defs><g class="tree-sequence"><g class="background"><path d="M56.8,0 l189.029,0 l0,138.2 l260.727,25 l0,5 l-449.756,0 l0,-5 l0,-25 l0,-138.2z" /><path d="M245.829,0 l189.029,0 l0,138.2 l331.046,25 l0,5 l-259.347,0 l0,-5 l-260.727,-25 l0,-138.2z" /><path d="M434.857,0 l189.029,0 l0,138.2 l163.056,25 l0,5 l-21.0389,0 l0,-5 l-331.046,-25 l0,-138.2z" /><path d="M623.886,0 l189.029,0 l0,138.2 l146.44,25 l0,5 l-172.413,0 l0,-5 l-163.056,-25 l0,-138.2z" /><path d="M812.914,0 l189.029,0 l0,138.2 l118.975,25 l0,5 l-161.563,0 l0,-5 l-146.441,-25 l0,-138.2z" /><path d="M1001.94,0 l189.029,0 l0,138.2 l95.0814,25 l0,5 l-165.135,0 l0,-5 l-118.98,-25 l0,-138.2z" /><path d="M1190.97,0 l189.029,0 l0,138.2 l-2.27374e-13,25 l0,5 l-93.9472,0 l0,-5 l-95.08,-25 l0,-138.2z" /></g><g class="axes"><g class="x-axis"><g class="title" transform="translate(718.4 200)"><text class="lab" text-anchor="middle" transform="translate(0 -11)">Genome position</text></g><line class="ax-line" x1="56.8" x2="1380" y1="163.2" y2="163.2" /><g class="ticks"><g class="tick" transform="translate(56.8 163.2)"><line x1="0" x2="0" y1="0" y2="5" /><g transform="translate(0 6)"><text class="lab">0</text></g></g><g class="tick" transform="translate(506.556 163.2)"><line x1="0" x2="0" y1="0" y2="5" /><g transform="translate(0 6)"><text class="lab">3399</text></g></g><g class="tick" transform="translate(765.903 163.2)"><line x1="0" x2="0" y1="0" y2="5" /><g transform="translate(0 6)"><text class="lab">5359</text></g></g><g class="tick" transform="translate(786.942 163.2)"><line x1="0" x2="0" y1="0" y2="5" /><g transform="translate(0 6)"><text class="lab">5518</text></g></g><g class="tick" transform="translate(959.355 163.2)"><line x1="0" x2="0" y1="0" y2="5" /><g transform="translate(0 6)"><text class="lab">6821</text></g></g><g class="tick" transform="translate(1120.92 163.2)"><line x1="0" x2="0" y1="0" y2="5" /><g transform="translate(0 6)"><text class="lab">8042</text></g></g><g class="tick" transform="translate(1286.05 163.2)"><line x1="0" x2="0" y1="0" y2="5" /><g transform="translate(0 6)"><text class="lab">9290</text></g></g></g><g class="site s0" transform="translate(90.4093 163.2)"><line class="sym" x1="0" x2="0" y1="0" y2="-10" /><g class="mut m0"><polyline class="sym" points="2.5,-6.5 0,-1.5 -2.5,-6.5" /></g></g><g class="site s1" transform="translate(604.34 163.2)"><line class="sym" x1="0" x2="0" y1="0" y2="-10" /><g class="mut m1"><polyline class="sym" points="2.5,-6.5 0,-1.5 -2.5,-6.5" /></g></g><g class="site s2" transform="translate(737.322 163.2)"><line class="sym" x1="0" x2="0" y1="0" y2="-10" /><g class="mut m2"><polyline class="sym" points="2.5,-6.5 0,-1.5 -2.5,-6.5" /></g></g><g class="site s3" transform="translate(897.958 163.2)"><line class="sym" x1="0" x2="0" y1="0" y2="-10" /><g class="mut m3"><polyline class="sym" points="2.5,-6.5 0,-1.5 -2.5,-6.5" /></g></g><g class="site s4" transform="translate(950.357 163.2)"><line class="sym" x1="0" x2="0" y1="0" y2="-10" /><g class="mut m4"><polyline class="sym" points="2.5,-6.5 0,-1.5 -2.5,-6.5" /></g></g><g class="site s5" transform="translate(1244.9 163.2)"><line class="sym" x1="0" x2="0" y1="0" y2="-10" /><g class="mut m5"><polyline class="sym" points="2.5,-6.5 0,-1.5 -2.5,-6.5" /></g></g></g><g class="y-axis"><g class="title" transform="translate(0 65.7)"><text class="lab" text-anchor="middle" transform="translate(11) rotate(-90)">Time (generations)</text></g><line class="ax-line" x1="56.8" x2="56.8" y1="121.4" y2="10" /><g class="ticks"><g class="tick" transform="translate(56.8 121.4)"><line x1="0" x2="-5" y1="0" y2="0" /><g transform="translate(-6 0)"><text class="lab" text-anchor="end">0.00</text></g></g><g class="tick" transform="translate(56.8 116.981)"><line x1="0" x2="-5" y1="0" y2="0" /><g transform="translate(-6 0)"><text class="lab" text-anchor="end">1045.45</text></g></g><g class="tick" transform="translate(56.8 116.626)"><line x1="0" x2="-5" y1="0" y2="0" /><g transform="translate(-6 0)"><text class="lab" text-anchor="end">1129.64</text></g></g><g class="tick" transform="translate(56.8 116.41)"><line x1="0" x2="-5" y1="0" y2="0" /><g transform="translate(-6 0)"><text class="lab" text-anchor="end">1180.56</text></g></g><g class="tick" transform="translate(56.8 115.766)"><line x1="0" x2="-5" y1="0" y2="0" /><g transform="translate(-6 0)"><text class="lab" text-anchor="end">1332.94</text></g></g><g class="tick" transform="translate(56.8 115.352)"><line x1="0" x2="-5" y1="0" y2="0" /><g transform="translate(-6 0)"><text class="lab" text-anchor="end">1431.01</text></g></g><g class="tick" transform="translate(56.8 112.911)"><line x1="0" x2="-5" y1="0" y2="0" /><g transform="translate(-6 0)"><text class="lab" text-anchor="end">2008.55</text></g></g><g class="tick" transform="translate(56.8 111.077)"><line x1="0" x2="-5" y1="0" y2="0" /><g transform="translate(-6 0)"><text class="lab" text-anchor="end">2442.59</text></g></g><g class="tick" transform="translate(56.8 109.847)"><line x1="0" x2="-5" y1="0" y2="0" /><g transform="translate(-6 0)"><text class="lab" text-anchor="end">2733.49</text></g></g><g class="tick" transform="translate(56.8 107.98)"><line x1="0" x2="-5" y1="0" y2="0" /><g transform="translate(-6 0)"><text class="lab" text-anchor="end">3175.19</text></g></g><g class="tick" transform="translate(56.8 107.887)"><line x1="0" x2="-5" y1="0" y2="0" /><g transform="translate(-6 0)"><text class="lab" text-anchor="end">3197.26</text></g></g><g class="tick" transform="translate(56.8 104.425)"><line x1="0" x2="-5" y1="0" y2="0" /><g transform="translate(-6 0)"><text class="lab" text-anchor="end">4016.32</text></g></g><g class="tick" transform="translate(56.8 91.8059)"><line x1="0" x2="-5" y1="0" y2="0" /><g transform="translate(-6 0)"><text class="lab" text-anchor="end">7002.17</text></g></g><g class="tick" transform="translate(56.8 90.8462)"><line x1="0" x2="-5" y1="0" y2="0" /><g transform="translate(-6 0)"><text class="lab" text-anchor="end">7229.22</text></g></g><g class="tick" transform="translate(56.8 68.5381)"><line x1="0" x2="-5" y1="0" y2="0" /><g transform="translate(-6 0)"><text class="lab" text-anchor="end">12507.47</text></g></g><g class="tick" transform="translate(56.8 22.3778)"><line x1="0" x2="-5" y1="0" y2="0" /><g transform="translate(-6 0)"><text class="lab" text-anchor="end">23429.32</text></g></g></g></g></g><g class="plotbox trees"><g class="tree t-1" transform="translate(56.8 0)"><g class="plotbox"><g class="c2 node n4988 p0 root" transform="translate(110.349 104.425)"><g class="a4988 c2 node n1418 p0" transform="translate(43.7771 11.9851)"><g class="a1418 i3 leaf node n6 p0 sample" transform="translate(-7.45143 4.98953)"><path class="edge" d="M 0 0 V -4.98953 H 7.45143" /><rect class="sym" height="6" width="6" x="-3" y="-3" /><text class="lab" transform="translate(0 11)">6</text></g><g class="a1418 i4 leaf m0 node n8 p0 s0 sample" transform="translate(7.45143 4.98953)"><path class="edge" d="M 0 0 V -4.98953 H -7.45143" /><g class="mut m0 s0" transform="translate(0 -0.440037)"><line x1="0" x2="0" y1="0" y2="0.440037" /><path class="sym" d="M -3,-3 l 6,6 M -3,3 l 6,-6" /><text class="lab rgt" transform="translate(5 0)">0</text></g><rect class="sym" height="6" width="6" x="-3" y="-3" /><text class="lab" transform="translate(0 11)">8</text></g><path class="edge" d="M 0 0 V -11.9851 H -43.7771" /><circle class="sym" cx="0" cy="0" r="3" /><text class="lab rgt" transform="translate(3 -7.0)">1418</text></g><g class="a4988 c2 node n4095 p0" transform="translate(-43.7771 3.4617)"><g class="a4095 c2 node n1227 p0" transform="translate(-31.6686 9.09444)"><g class="a1227 i0 leaf node n0 p0 sample" transform="translate(-7.45143 4.41853)"><path class="edge" d="M 0 0 V -4.41853 H 7.45143" /><rect class="sym" height="6" width="6" x="-3" y="-3" /><text class="lab" transform="translate(0 11)">0</text></g><g class="a1227 i4 leaf node n9 p0 sample" transform="translate(7.45143 4.41853)"><path class="edge" d="M 0 0 V -4.41853 H -7.45143" /><rect class="sym" height="6" width="6" x="-3" y="-3" /><text class="lab" transform="translate(0 11)">9</text></g><path class="edge" d="M 0 0 V -9.09444 H 31.6686" /><circle class="sym" cx="0" cy="0" r="3" /><text class="lab lft" transform="translate(-3 -7.0)">1227</text></g><g class="a4095 c2 node n3552 p0" transform="translate(31.6686 1.96007)"><g class="a3552 c2 node n1665 p0" transform="translate(22.3543 5.91933)"><g class="a1665 i3 leaf node n7 p0 sample" transform="translate(11.1771 5.63357)"><path class="edge" d="M 0 0 V -5.63357 H -11.1771" /><rect class="sym" height="6" width="6" x="-3" y="-3" /><text class="lab" transform="translate(0 11)">7</text></g><g class="a1665 c2 node n1339 p0" transform="translate(-11.1771 0.859236)"><g class="a1339 i1 leaf node n2 p0 sample" transform="translate(-7.45143 4.77434)"><path class="edge" d="M 0 0 V -4.77434 H 7.45143" /><rect class="sym" height="6" width="6" x="-3" y="-3" /><text class="lab" transform="translate(0 11)">2</text></g><g class="a1339 i2 leaf node n4 p0 sample" transform="translate(7.45143 4.77434)"><path class="edge" d="M 0 0 V -4.77434 H -7.45143" /><rect class="sym" height="6" width="6" x="-3" y="-3" /><text class="lab" transform="translate(0 11)">4</text></g><path class="edge" d="M 0 0 V -0.859236 H 11.1771" /><circle class="sym" cx="0" cy="0" r="3" /><text class="lab lft" transform="translate(-3 -7.0)">1339</text></g><path class="edge" d="M 0 0 V -5.91933 H -22.3543" /><circle class="sym" cx="0" cy="0" r="3" /><text class="lab rgt" transform="translate(3 -7.0)">1665</text></g><g class="a3552 c2 node n2644 p0" transform="translate(-22.3543 3.06391)"><g class="a2644 i2 leaf node n5 p0 sample" transform="translate(11.1771 8.489)"><path class="edge" d="M 0 0 V -8.489 H -11.1771" /><rect class="sym" height="6" width="6" x="-3" y="-3" /><text class="lab" transform="translate(0 11)">5</text></g><g class="a2644 c2 node n1809 p0" transform="translate(-11.1771 2.44096)"><g class="a1809 i0 leaf node n1 p0 sample" transform="translate(-7.45143 6.04803)"><path class="edge" d="M 0 0 V -6.04803 H 7.45143" /><rect class="sym" height="6" width="6" x="-3" y="-3" /><text class="lab" transform="translate(0 11)">1</text></g><g class="a1809 i1 leaf node n3 p0 sample" transform="translate(7.45143 6.04803)"><path class="edge" d="M 0 0 V -6.04803 H -7.45143" /><rect class="sym" height="6" width="6" x="-3" y="-3" /><text class="lab" transform="translate(0 11)">3</text></g><path class="edge" d="M 0 0 V -2.44096 H 11.1771" /><circle class="sym" cx="0" cy="0" r="3" /><text class="lab lft" transform="translate(-3 -7.0)">1809</text></g><path class="edge" d="M 0 0 V -3.06391 H 22.3543" /><circle class="sym" cx="0" cy="0" r="3" /><text class="lab lft" transform="translate(-3 -7.0)">2644</text></g><path class="edge" d="M 0 0 V -1.96007 H -31.6686" /><circle class="sym" cx="0" cy="0" r="3" /><text class="lab rgt" transform="translate(3 -7.0)">3552</text></g><path class="edge" d="M 0 0 V -3.4617 H 43.7771" /><circle class="sym" cx="0" cy="0" r="3" /><text class="lab lft" transform="translate(-3 -7.0)">4095</text></g><path class="edge" d="M 0 0 V -12.3778 H 0" /><circle class="sym" cx="0" cy="0" r="3" /><text class="lab rgt" transform="translate(3 -7.0)">4988</text></g></g></g><g class="tree t0" transform="translate(245.829 0)"><g class="plotbox"><g class="c2 m1 node n4988 p0 root s1" transform="translate(115.471 104.425)"><g class="a4988 c2 node n1418 p0" transform="translate(38.6543 11.9851)"><g class="a1418 i3 leaf node n6 p0 sample" transform="translate(-7.45143 4.98953)"><path class="edge" d="M 0 0 V -4.98953 H 7.45143" /><rect class="sym" height="6" width="6" x="-3" y="-3" /><text class="lab" transform="translate(0 11)">6</text></g><g class="a1418 i4 leaf m2 node n8 p0 s2 sample" transform="translate(7.45143 4.98953)"><path class="edge" d="M 0 0 V -4.98953 H -7.45143" /><g class="mut m2 s2" transform="translate(0 -2.44766)"><line x1="0" x2="0" y1="0" y2="2.44766" /><path class="sym" d="M -3,-3 l 6,6 M -3,3 l 6,-6" /><text class="lab rgt" transform="translate(5 0)">2</text></g><rect class="sym" height="6" width="6" x="-3" y="-3" /><text class="lab" transform="translate(0 11)">8</text></g><path class="edge" d="M 0 0 V -11.9851 H -38.6543" /><circle class="sym" cx="0" cy="0" r="3" /><text class="lab rgt" transform="translate(3 -7.0)">1418</text></g><g class="a4988 c2 node n4095 p0" transform="translate(-38.6543 3.4617)"><g class="a4095 c2 node n3552 p0" transform="translate(30.7371 1.96007)"><g class="a3552 c2 node n1665 p0" transform="translate(16.7657 5.91933)"><g class="a1665 i3 leaf node n7 p0 sample" transform="translate(7.45143 5.63357)"><path class="edge" d="M 0 0 V -5.63357 H -7.45143" /><rect class="sym" height="6" width="6" x="-3" y="-3" /><text class="lab" transform="translate(0 11)">7</text></g><g class="a1665 i1 leaf node n2 p0 sample" transform="translate(-7.45143 5.63357)"><path class="edge" d="M 0 0 V -5.63357 H 7.45143" /><rect class="sym" height="6" width="6" x="-3" y="-3" /><text class="lab" transform="translate(0 11)">2</text></g><path class="edge" d="M 0 0 V -5.91933 H -16.7657" /><circle class="sym" cx="0" cy="0" r="3" /><text class="lab rgt" transform="translate(3 -7.0)">1665</text></g><g class="a3552 c2 node n2644 p0" transform="translate(-16.7657 3.06391)"><g class="a2644 i2 leaf node n5 p0 sample" transform="translate(11.1771 8.489)"><path class="edge" d="M 0 0 V -8.489 H -11.1771" /><rect class="sym" height="6" width="6" x="-3" y="-3" /><text class="lab" transform="translate(0 11)">5</text></g><g class="a2644 c2 node n1809 p0" transform="translate(-11.1771 2.44096)"><g class="a1809 i0 leaf node n1 p0 sample" transform="translate(-7.45143 6.04803)"><path class="edge" d="M 0 0 V -6.04803 H 7.45143" /><rect class="sym" height="6" width="6" x="-3" y="-3" /><text class="lab" transform="translate(0 11)">1</text></g><g class="a1809 i1 leaf node n3 p0 sample" transform="translate(7.45143 6.04803)"><path class="edge" d="M 0 0 V -6.04803 H -7.45143" /><rect class="sym" height="6" width="6" x="-3" y="-3" /><text class="lab" transform="translate(0 11)">3</text></g><path class="edge" d="M 0 0 V -2.44096 H 11.1771" /><circle class="sym" cx="0" cy="0" r="3" /><text class="lab lft" transform="translate(-3 -7.0)">1809</text></g><path class="edge" d="M 0 0 V -3.06391 H 16.7657" /><circle class="sym" cx="0" cy="0" r="3" /><text class="lab lft" transform="translate(-3 -7.0)">2644</text></g><path class="edge" d="M 0 0 V -1.96007 H -30.7371" /><circle class="sym" cx="0" cy="0" r="3" /><text class="lab rgt" transform="translate(3 -7.0)">3552</text></g><g class="a4095 c2 node n4069 p0" transform="translate(-30.7371 0.0932913)"><g class="a4069 i2 leaf node n4 p0 sample" transform="translate(11.1771 13.4197)"><path class="edge" d="M 0 0 V -13.4197 H -11.1771" /><rect class="sym" height="6" width="6" x="-3" y="-3" /><text class="lab" transform="translate(0 11)">4</text></g><g class="a4069 c2 node n1227 p0" transform="translate(-11.1771 9.00115)"><g class="a1227 i0 leaf node n0 p0 sample" transform="translate(-7.45143 4.41853)"><path class="edge" d="M 0 0 V -4.41853 H 7.45143" /><rect class="sym" height="6" width="6" x="-3" y="-3" /><text class="lab" transform="translate(0 11)">0</text></g><g class="a1227 i4 leaf node n9 p0 sample" transform="translate(7.45143 4.41853)"><path class="edge" d="M 0 0 V -4.41853 H -7.45143" /><rect class="sym" height="6" width="6" x="-3" y="-3" /><text class="lab" transform="translate(0 11)">9</text></g><path class="edge" d="M 0 0 V -9.00115 H 11.1771" /><circle class="sym" cx="0" cy="0" r="3" /><text class="lab lft" transform="translate(-3 -7.0)">1227</text></g><path class="edge" d="M 0 0 V -0.0932913 H 30.7371" /><circle class="sym" cx="0" cy="0" r="3" /><text class="lab lft" transform="translate(-3 -7.0)">4069</text></g><path class="edge" d="M 0 0 V -3.4617 H 38.6543" /><circle class="sym" cx="0" cy="0" r="3" /><text class="lab lft" transform="translate(-3 -7.0)">4095</text></g><path class="edge" d="M 0 0 V -14.2771 H 0" /><g class="mut m1 s1" transform="translate(0 -14.2771)"><line x1="0" x2="0" y1="0" y2="14.2771" /><path class="sym" d="M -3,-3 l 6,6 M -3,3 l 6,-6" /><text class="lab rgt" transform="translate(5 0)">1</text></g><circle class="sym" cx="0" cy="0" r="3" /><text class="lab rgt" transform="translate(3 -7.0)">4988</text></g></g></g><g class="tree t1" transform="translate(434.857 0)"><g class="plotbox"><g class="c2 node n7392 p0 root" transform="translate(131.539 91.8059)"><g class="a7392 i2 leaf node n4 p0 sample" transform="translate(30.0386 29.5941)"><path class="edge" d="M 0 0 V -29.5941 H -30.0386" /><rect class="sym" height="6" width="6" x="-3" y="-3" /><text class="lab" transform="translate(0 11)">4</text></g><g class="a7392 c2 node n4988 p0" transform="translate(-30.0386 12.6195)"><g class="a4988 c2 node n1418 p0" transform="translate(37.7229 11.9851)"><g class="a1418 i3 leaf node n6 p0 sample" transform="translate(-7.45143 4.98953)"><path class="edge" d="M 0 0 V -4.98953 H 7.45143" /><rect class="sym" height="6" width="6" x="-3" y="-3" /><text class="lab" transform="translate(0 11)">6</text></g><g class="a1418 i4 leaf node n8 p0 sample" transform="translate(7.45143 4.98953)"><path class="edge" d="M 0 0 V -4.98953 H -7.45143" /><rect class="sym" height="6" width="6" x="-3" y="-3" /><text class="lab" transform="translate(0 11)">8</text></g><path class="edge" d="M 0 0 V -11.9851 H -37.7229" /><circle class="sym" cx="0" cy="0" r="3" /><text class="lab rgt" transform="translate(3 -7.0)">1418</text></g><g class="a4988 c2 node n4095 p0" transform="translate(-37.7229 3.4617)"><g class="a4095 c2 node n3552 p0" transform="translate(28.8743 1.96007)"><g class="a3552 c2 node n1665 p0" transform="translate(16.7657 5.91933)"><g class="a1665 i3 leaf node n7 p0 sample" transform="translate(7.45143 5.63357)"><path class="edge" d="M 0 0 V -5.63357 H -7.45143" /><rect class="sym" height="6" width="6" x="-3" y="-3" /><text class="lab" transform="translate(0 11)">7</text></g><g class="a1665 i1 leaf node n2 p0 sample" transform="translate(-7.45143 5.63357)"><path class="edge" d="M 0 0 V -5.63357 H 7.45143" /><rect class="sym" height="6" width="6" x="-3" y="-3" /><text class="lab" transform="translate(0 11)">2</text></g><path class="edge" d="M 0 0 V -5.91933 H -16.7657" /><circle class="sym" cx="0" cy="0" r="3" /><text class="lab rgt" transform="translate(3 -7.0)">1665</text></g><g class="a3552 c2 node n2644 p0" transform="translate(-16.7657 3.06391)"><g class="a2644 i2 leaf node n5 p0 sample" transform="translate(11.1771 8.489)"><path class="edge" d="M 0 0 V -8.489 H -11.1771" /><rect class="sym" height="6" width="6" x="-3" y="-3" /><text class="lab" transform="translate(0 11)">5</text></g><g class="a2644 c2 node n1809 p0" transform="translate(-11.1771 2.44096)"><g class="a1809 i0 leaf node n1 p0 sample" transform="translate(-7.45143 6.04803)"><path class="edge" d="M 0 0 V -6.04803 H 7.45143" /><rect class="sym" height="6" width="6" x="-3" y="-3" /><text class="lab" transform="translate(0 11)">1</text></g><g class="a1809 i1 leaf node n3 p0 sample" transform="translate(7.45143 6.04803)"><path class="edge" d="M 0 0 V -6.04803 H -7.45143" /><rect class="sym" height="6" width="6" x="-3" y="-3" /><text class="lab" transform="translate(0 11)">3</text></g><path class="edge" d="M 0 0 V -2.44096 H 11.1771" /><circle class="sym" cx="0" cy="0" r="3" /><text class="lab lft" transform="translate(-3 -7.0)">1809</text></g><path class="edge" d="M 0 0 V -3.06391 H 16.7657" /><circle class="sym" cx="0" cy="0" r="3" /><text class="lab lft" transform="translate(-3 -7.0)">2644</text></g><path class="edge" d="M 0 0 V -1.96007 H -28.8743" /><circle class="sym" cx="0" cy="0" r="3" /><text class="lab rgt" transform="translate(3 -7.0)">3552</text></g><g class="a4095 c2 node n1227 p0" transform="translate(-28.8743 9.09444)"><g class="a1227 i0 leaf node n0 p0 sample" transform="translate(-7.45143 4.41853)"><path class="edge" d="M 0 0 V -4.41853 H 7.45143" /><rect class="sym" height="6" width="6" x="-3" y="-3" /><text class="lab" transform="translate(0 11)">0</text></g><g class="a1227 i4 leaf node n9 p0 sample" transform="translate(7.45143 4.41853)"><path class="edge" d="M 0 0 V -4.41853 H -7.45143" /><rect class="sym" height="6" width="6" x="-3" y="-3" /><text class="lab" transform="translate(0 11)">9</text></g><path class="edge" d="M 0 0 V -9.09444 H 28.8743" /><circle class="sym" cx="0" cy="0" r="3" /><text class="lab lft" transform="translate(-3 -7.0)">1227</text></g><path class="edge" d="M 0 0 V -3.4617 H 37.7229" /><circle class="sym" cx="0" cy="0" r="3" /><text class="lab lft" transform="translate(-3 -7.0)">4095</text></g><path class="edge" d="M 0 0 V -12.6195 H 30.0386" /><circle class="sym" cx="0" cy="0" r="3" /><text class="lab lft" transform="translate(-3 -7.0)">4988</text></g><path class="edge" d="M 0 0 V -12.3778 H 0" /><circle class="sym" cx="0" cy="0" r="3" /><text class="lab rgt" transform="translate(3 -7.0)">7392</text></g></g></g><g class="tree t2" transform="translate(623.886 0)"><g class="plotbox"><g class="c2 node n7549 p0 root" transform="translate(131.539 90.8462)"><g class="a7549 i2 leaf node n4 p0 sample" transform="translate(30.0386 30.5538)"><path class="edge" d="M 0 0 V -30.5538 H -30.0386" /><rect class="sym" height="6" width="6" x="-3" y="-3" /><text class="lab" transform="translate(0 11)">4</text></g><g class="a7549 c2 node n4988 p0" transform="translate(-30.0386 13.5791)"><g class="a4988 c2 node n1418 p0" transform="translate(37.7229 11.9851)"><g class="a1418 i3 leaf node n6 p0 sample" transform="translate(-7.45143 4.98953)"><path class="edge" d="M 0 0 V -4.98953 H 7.45143" /><rect class="sym" height="6" width="6" x="-3" y="-3" /><text class="lab" transform="translate(0 11)">6</text></g><g class="a1418 i4 leaf node n8 p0 sample" transform="translate(7.45143 4.98953)"><path class="edge" d="M 0 0 V -4.98953 H -7.45143" /><rect class="sym" height="6" width="6" x="-3" y="-3" /><text class="lab" transform="translate(0 11)">8</text></g><path class="edge" d="M 0 0 V -11.9851 H -37.7229" /><circle class="sym" cx="0" cy="0" r="3" /><text class="lab rgt" transform="translate(3 -7.0)">1418</text></g><g class="a4988 c2 node n4095 p0" transform="translate(-37.7229 3.4617)"><g class="a4095 c2 node n3552 p0" transform="translate(28.8743 1.96007)"><g class="a3552 c2 m4 node n1665 p0 s4" transform="translate(16.7657 5.91933)"><g class="a1665 i3 leaf node n7 p0 sample" transform="translate(7.45143 5.63357)"><path class="edge" d="M 0 0 V -5.63357 H -7.45143" /><rect class="sym" height="6" width="6" x="-3" y="-3" /><text class="lab" transform="translate(0 11)">7</text></g><g class="a1665 i1 leaf node n2 p0 sample" transform="translate(-7.45143 5.63357)"><path class="edge" d="M 0 0 V -5.63357 H 7.45143" /><rect class="sym" height="6" width="6" x="-3" y="-3" /><text class="lab" transform="translate(0 11)">2</text></g><path class="edge" d="M 0 0 V -5.91933 H -16.7657" /><g class="mut m4 s4" transform="translate(0 -3.40792)"><line x1="0" x2="0" y1="0" y2="3.40792" /><path class="sym" d="M -3,-3 l 6,6 M -3,3 l 6,-6" /><text class="lab rgt" transform="translate(5 0)">4</text></g><circle class="sym" cx="0" cy="0" r="3" /><text class="lab rgt" transform="translate(3 -7.0)">1665</text></g><g class="a3552 c2 node n2644 p0" transform="translate(-16.7657 3.06391)"><g class="a2644 i2 leaf node n5 p0 sample" transform="translate(11.1771 8.489)"><path class="edge" d="M 0 0 V -8.489 H -11.1771" /><rect class="sym" height="6" width="6" x="-3" y="-3" /><text class="lab" transform="translate(0 11)">5</text></g><g class="a2644 c2 m3 node n1809 p0 s3" transform="translate(-11.1771 2.44096)"><g class="a1809 i0 leaf node n1 p0 sample" transform="translate(-7.45143 6.04803)"><path class="edge" d="M 0 0 V -6.04803 H 7.45143" /><rect class="sym" height="6" width="6" x="-3" y="-3" /><text class="lab" transform="translate(0 11)">1</text></g><g class="a1809 i1 leaf node n3 p0 sample" transform="translate(7.45143 6.04803)"><path class="edge" d="M 0 0 V -6.04803 H -7.45143" /><rect class="sym" height="6" width="6" x="-3" y="-3" /><text class="lab" transform="translate(0 11)">3</text></g><path class="edge" d="M 0 0 V -2.44096 H 11.1771" /><g class="mut m3 s3" transform="translate(0 -0.243905)"><line x1="0" x2="0" y1="0" y2="0.243905" /><path class="sym" d="M -3,-3 l 6,6 M -3,3 l 6,-6" /><text class="lab lft" transform="translate(-5 0)">3</text></g><circle class="sym" cx="0" cy="0" r="3" /><text class="lab lft" transform="translate(-3 -7.0)">1809</text></g><path class="edge" d="M 0 0 V -3.06391 H 16.7657" /><circle class="sym" cx="0" cy="0" r="3" /><text class="lab lft" transform="translate(-3 -7.0)">2644</text></g><path class="edge" d="M 0 0 V -1.96007 H -28.8743" /><circle class="sym" cx="0" cy="0" r="3" /><text class="lab rgt" transform="translate(3 -7.0)">3552</text></g><g class="a4095 c2 node n1227 p0" transform="translate(-28.8743 9.09444)"><g class="a1227 i0 leaf node n0 p0 sample" transform="translate(-7.45143 4.41853)"><path class="edge" d="M 0 0 V -4.41853 H 7.45143" /><rect class="sym" height="6" width="6" x="-3" y="-3" /><text class="lab" transform="translate(0 11)">0</text></g><g class="a1227 i4 leaf node n9 p0 sample" transform="translate(7.45143 4.41853)"><path class="edge" d="M 0 0 V -4.41853 H -7.45143" /><rect class="sym" height="6" width="6" x="-3" y="-3" /><text class="lab" transform="translate(0 11)">9</text></g><path class="edge" d="M 0 0 V -9.09444 H 28.8743" /><circle class="sym" cx="0" cy="0" r="3" /><text class="lab lft" transform="translate(-3 -7.0)">1227</text></g><path class="edge" d="M 0 0 V -3.4617 H 37.7229" /><circle class="sym" cx="0" cy="0" r="3" /><text class="lab lft" transform="translate(-3 -7.0)">4095</text></g><path class="edge" d="M 0 0 V -13.5791 H 30.0386" /><circle class="sym" cx="0" cy="0" r="3" /><text class="lab lft" transform="translate(-3 -7.0)">4988</text></g><path class="edge" d="M 0 0 V -12.3778 H 0" /><circle class="sym" cx="0" cy="0" r="3" /><text class="lab rgt" transform="translate(3 -7.0)">7549</text></g></g></g><g class="tree t3" transform="translate(812.914 0)"><g class="plotbox"><g class="c2 node n7549 p0 root" transform="translate(134.1 90.8462)"><g class="a7549 i2 leaf node n4 p0 sample" transform="translate(27.4771 30.5538)"><path class="edge" d="M 0 0 V -30.5538 H -27.4771" /><rect class="sym" height="6" width="6" x="-3" y="-3" /><text class="lab" transform="translate(0 11)">4</text></g><g class="a7549 c2 node n4988 p0" transform="translate(-27.4771 13.5791)"><g class="a4988 c2 node n4095 p0" transform="translate(-40.0514 3.4617)"><g class="a4095 c2 node n3552 p0" transform="translate(31.6686 1.96007)"><g class="a3552 c2 node n2644 p0" transform="translate(-22.3543 3.06391)"><g class="a2644 i2 leaf node n5 p0 sample" transform="translate(11.1771 8.489)"><path class="edge" d="M 0 0 V -8.489 H -11.1771" /><rect class="sym" height="6" width="6" x="-3" y="-3" /><text class="lab" transform="translate(0 11)">5</text></g><g class="a2644 c2 node n1809 p0" transform="translate(-11.1771 2.44096)"><g class="a1809 i0 leaf node n1 p0 sample" transform="translate(-7.45143 6.04803)"><path class="edge" d="M 0 0 V -6.04803 H 7.45143" /><rect class="sym" height="6" width="6" x="-3" y="-3" /><text class="lab" transform="translate(0 11)">1</text></g><g class="a1809 i1 leaf node n3 p0 sample" transform="translate(7.45143 6.04803)"><path class="edge" d="M 0 0 V -6.04803 H -7.45143" /><rect class="sym" height="6" width="6" x="-3" y="-3" /><text class="lab" transform="translate(0 11)">3</text></g><path class="edge" d="M 0 0 V -2.44096 H 11.1771" /><circle class="sym" cx="0" cy="0" r="3" /><text class="lab lft" transform="translate(-3 -7.0)">1809</text></g><path class="edge" d="M 0 0 V -3.06391 H 22.3543" /><circle class="sym" cx="0" cy="0" r="3" /><text class="lab lft" transform="translate(-3 -7.0)">2644</text></g><g class="a3552 c2 node n3202 p0" transform="translate(22.3543 1.22949)"><g class="a3202 i4 leaf node n8 p0 sample" transform="translate(11.1771 10.3234)"><path class="edge" d="M 0 0 V -10.3234 H -11.1771" /><rect class="sym" height="6" width="6" x="-3" y="-3" /><text class="lab" transform="translate(0 11)">8</text></g><g class="a3202 c2 node n1665 p0" transform="translate(-11.1771 4.68984)"><g class="a1665 i3 leaf node n7 p0 sample" transform="translate(7.45143 5.63357)"><path class="edge" d="M 0 0 V -5.63357 H -7.45143" /><rect class="sym" height="6" width="6" x="-3" y="-3" /><text class="lab" transform="translate(0 11)">7</text></g><g class="a1665 i1 leaf node n2 p0 sample" transform="translate(-7.45143 5.63357)"><path class="edge" d="M 0 0 V -5.63357 H 7.45143" /><rect class="sym" height="6" width="6" x="-3" y="-3" /><text class="lab" transform="translate(0 11)">2</text></g><path class="edge" d="M 0 0 V -4.68984 H 11.1771" /><circle class="sym" cx="0" cy="0" r="3" /><text class="lab lft" transform="translate(-3 -7.0)">1665</text></g><path class="edge" d="M 0 0 V -1.22949 H -22.3543" /><circle class="sym" cx="0" cy="0" r="3" /><text class="lab rgt" transform="translate(3 -7.0)">3202</text></g><path class="edge" d="M 0 0 V -1.96007 H -31.6686" /><circle class="sym" cx="0" cy="0" r="3" /><text class="lab rgt" transform="translate(3 -7.0)">3552</text></g><g class="a4095 c2 node n1227 p0" transform="translate(-31.6686 9.09444)"><g class="a1227 i0 leaf node n0 p0 sample" transform="translate(-7.45143 4.41853)"><path class="edge" d="M 0 0 V -4.41853 H 7.45143" /><rect class="sym" height="6" width="6" x="-3" y="-3" /><text class="lab" transform="translate(0 11)">0</text></g><g class="a1227 i4 leaf node n9 p0 sample" transform="translate(7.45143 4.41853)"><path class="edge" d="M 0 0 V -4.41853 H -7.45143" /><rect class="sym" height="6" width="6" x="-3" y="-3" /><text class="lab" transform="translate(0 11)">9</text></g><path class="edge" d="M 0 0 V -9.09444 H 31.6686" /><circle class="sym" cx="0" cy="0" r="3" /><text class="lab lft" transform="translate(-3 -7.0)">1227</text></g><path class="edge" d="M 0 0 V -3.4617 H 40.0514" /><circle class="sym" cx="0" cy="0" r="3" /><text class="lab lft" transform="translate(-3 -7.0)">4095</text></g><g class="a4988 i3 leaf node n6 p0 sample" transform="translate(40.0514 16.9747)"><path class="edge" d="M 0 0 V -16.9747 H -40.0514" /><rect class="sym" height="6" width="6" x="-3" y="-3" /><text class="lab" transform="translate(0 11)">6</text></g><path class="edge" d="M 0 0 V -13.5791 H 27.4771" /><circle class="sym" cx="0" cy="0" r="3" /><text class="lab lft" transform="translate(-3 -7.0)">4988</text></g><path class="edge" d="M 0 0 V -12.3778 H 0" /><circle class="sym" cx="0" cy="0" r="3" /><text class="lab rgt" transform="translate(3 -7.0)">7549</text></g></g></g><g class="tree t4" transform="translate(1001.94 0)"><g class="plotbox"><g class="c2 node n13498 p0 root" transform="translate(134.1 22.3778)"><g class="a13498 i2 leaf node n4 p0 sample" transform="translate(27.4771 99.0222)"><path class="edge" d="M 0 0 V -99.0222 H -27.4771" /><rect class="sym" height="6" width="6" x="-3" y="-3" /><text class="lab" transform="translate(0 11)">4</text></g><g class="a13498 c2 m5 node n4988 p0 s5" transform="translate(-27.4771 82.0476)"><g class="a4988 c2 node n4095 p0" transform="translate(-40.0514 3.4617)"><g class="a4095 c2 node n3552 p0" transform="translate(31.6686 1.96007)"><g class="a3552 c2 node n2644 p0" transform="translate(-22.3543 3.06391)"><g class="a2644 i2 leaf node n5 p0 sample" transform="translate(11.1771 8.489)"><path class="edge" d="M 0 0 V -8.489 H -11.1771" /><rect class="sym" height="6" width="6" x="-3" y="-3" /><text class="lab" transform="translate(0 11)">5</text></g><g class="a2644 c2 node n1809 p0" transform="translate(-11.1771 2.44096)"><g class="a1809 i0 leaf node n1 p0 sample" transform="translate(-7.45143 6.04803)"><path class="edge" d="M 0 0 V -6.04803 H 7.45143" /><rect class="sym" height="6" width="6" x="-3" y="-3" /><text class="lab" transform="translate(0 11)">1</text></g><g class="a1809 i1 leaf node n3 p0 sample" transform="translate(7.45143 6.04803)"><path class="edge" d="M 0 0 V -6.04803 H -7.45143" /><rect class="sym" height="6" width="6" x="-3" y="-3" /><text class="lab" transform="translate(0 11)">3</text></g><path class="edge" d="M 0 0 V -2.44096 H 11.1771" /><circle class="sym" cx="0" cy="0" r="3" /><text class="lab lft" transform="translate(-3 -7.0)">1809</text></g><path class="edge" d="M 0 0 V -3.06391 H 22.3543" /><circle class="sym" cx="0" cy="0" r="3" /><text class="lab lft" transform="translate(-3 -7.0)">2644</text></g><g class="a3552 c2 node n3202 p0" transform="translate(22.3543 1.22949)"><g class="a3202 i4 leaf node n8 p0 sample" transform="translate(11.1771 10.3234)"><path class="edge" d="M 0 0 V -10.3234 H -11.1771" /><rect class="sym" height="6" width="6" x="-3" y="-3" /><text class="lab" transform="translate(0 11)">8</text></g><g class="a3202 c2 node n1665 p0" transform="translate(-11.1771 4.68984)"><g class="a1665 i3 leaf node n7 p0 sample" transform="translate(7.45143 5.63357)"><path class="edge" d="M 0 0 V -5.63357 H -7.45143" /><rect class="sym" height="6" width="6" x="-3" y="-3" /><text class="lab" transform="translate(0 11)">7</text></g><g class="a1665 i1 leaf node n2 p0 sample" transform="translate(-7.45143 5.63357)"><path class="edge" d="M 0 0 V -5.63357 H 7.45143" /><rect class="sym" height="6" width="6" x="-3" y="-3" /><text class="lab" transform="translate(0 11)">2</text></g><path class="edge" d="M 0 0 V -4.68984 H 11.1771" /><circle class="sym" cx="0" cy="0" r="3" /><text class="lab lft" transform="translate(-3 -7.0)">1665</text></g><path class="edge" d="M 0 0 V -1.22949 H -22.3543" /><circle class="sym" cx="0" cy="0" r="3" /><text class="lab rgt" transform="translate(3 -7.0)">3202</text></g><path class="edge" d="M 0 0 V -1.96007 H -31.6686" /><circle class="sym" cx="0" cy="0" r="3" /><text class="lab rgt" transform="translate(3 -7.0)">3552</text></g><g class="a4095 c2 node n1227 p0" transform="translate(-31.6686 9.09444)"><g class="a1227 i0 leaf node n0 p0 sample" transform="translate(-7.45143 4.41853)"><path class="edge" d="M 0 0 V -4.41853 H 7.45143" /><rect class="sym" height="6" width="6" x="-3" y="-3" /><text class="lab" transform="translate(0 11)">0</text></g><g class="a1227 i4 leaf node n9 p0 sample" transform="translate(7.45143 4.41853)"><path class="edge" d="M 0 0 V -4.41853 H -7.45143" /><rect class="sym" height="6" width="6" x="-3" y="-3" /><text class="lab" transform="translate(0 11)">9</text></g><path class="edge" d="M 0 0 V -9.09444 H 31.6686" /><circle class="sym" cx="0" cy="0" r="3" /><text class="lab lft" transform="translate(-3 -7.0)">1227</text></g><path class="edge" d="M 0 0 V -3.4617 H 40.0514" /><circle class="sym" cx="0" cy="0" r="3" /><text class="lab lft" transform="translate(-3 -7.0)">4095</text></g><g class="a4988 i3 leaf node n6 p0 sample" transform="translate(40.0514 16.9747)"><path class="edge" d="M 0 0 V -16.9747 H -40.0514" /><rect class="sym" height="6" width="6" x="-3" y="-3" /><text class="lab" transform="translate(0 11)">6</text></g><path class="edge" d="M 0 0 V -82.0476 H 27.4771" /><g class="mut m5 s5" transform="translate(0 -51.7547)"><line x1="0" x2="0" y1="0" y2="51.7547" /><path class="sym" d="M -3,-3 l 6,6 M -3,3 l 6,-6" /><text class="lab lft" transform="translate(-5 0)">5</text></g><circle class="sym" cx="0" cy="0" r="3" /><text class="lab lft" transform="translate(-3 -7.0)">4988</text></g><path class="edge" d="M 0 0 V -12.3778 H 0" /><circle class="sym" cx="0" cy="0" r="3" /><text class="lab rgt" transform="translate(3 -7.0)">13498</text></g></g></g><g class="tree t5" transform="translate(1190.97 0)"><g class="plotbox"><g class="c2 node n10306 p0 root" transform="translate(134.1 68.5381)"><g class="a10306 i2 leaf node n4 p0 sample" transform="translate(27.4771 52.8619)"><path class="edge" d="M 0 0 V -52.8619 H -27.4771" /><rect class="sym" height="6" width="6" x="-3" y="-3" /><text class="lab" transform="translate(0 11)">4</text></g><g class="a10306 c2 node n4988 p0" transform="translate(-27.4771 35.8872)"><g class="a4988 c2 node n4095 p0" transform="translate(-40.0514 3.4617)"><g class="a4095 c2 node n3552 p0" transform="translate(31.6686 1.96007)"><g class="a3552 c2 node n2644 p0" transform="translate(-22.3543 3.06391)"><g class="a2644 i2 leaf node n5 p0 sample" transform="translate(11.1771 8.489)"><path class="edge" d="M 0 0 V -8.489 H -11.1771" /><rect class="sym" height="6" width="6" x="-3" y="-3" /><text class="lab" transform="translate(0 11)">5</text></g><g class="a2644 c2 node n1809 p0" transform="translate(-11.1771 2.44096)"><g class="a1809 i0 leaf node n1 p0 sample" transform="translate(-7.45143 6.04803)"><path class="edge" d="M 0 0 V -6.04803 H 7.45143" /><rect class="sym" height="6" width="6" x="-3" y="-3" /><text class="lab" transform="translate(0 11)">1</text></g><g class="a1809 i1 leaf node n3 p0 sample" transform="translate(7.45143 6.04803)"><path class="edge" d="M 0 0 V -6.04803 H -7.45143" /><rect class="sym" height="6" width="6" x="-3" y="-3" /><text class="lab" transform="translate(0 11)">3</text></g><path class="edge" d="M 0 0 V -2.44096 H 11.1771" /><circle class="sym" cx="0" cy="0" r="3" /><text class="lab lft" transform="translate(-3 -7.0)">1809</text></g><path class="edge" d="M 0 0 V -3.06391 H 22.3543" /><circle class="sym" cx="0" cy="0" r="3" /><text class="lab lft" transform="translate(-3 -7.0)">2644</text></g><g class="a3552 c2 node n3202 p0" transform="translate(22.3543 1.22949)"><g class="a3202 i4 leaf node n8 p0 sample" transform="translate(11.1771 10.3234)"><path class="edge" d="M 0 0 V -10.3234 H -11.1771" /><rect class="sym" height="6" width="6" x="-3" y="-3" /><text class="lab" transform="translate(0 11)">8</text></g><g class="a3202 c2 node n1665 p0" transform="translate(-11.1771 4.68984)"><g class="a1665 i3 leaf node n7 p0 sample" transform="translate(7.45143 5.63357)"><path class="edge" d="M 0 0 V -5.63357 H -7.45143" /><rect class="sym" height="6" width="6" x="-3" y="-3" /><text class="lab" transform="translate(0 11)">7</text></g><g class="a1665 i1 leaf node n2 p0 sample" transform="translate(-7.45143 5.63357)"><path class="edge" d="M 0 0 V -5.63357 H 7.45143" /><rect class="sym" height="6" width="6" x="-3" y="-3" /><text class="lab" transform="translate(0 11)">2</text></g><path class="edge" d="M 0 0 V -4.68984 H 11.1771" /><circle class="sym" cx="0" cy="0" r="3" /><text class="lab lft" transform="translate(-3 -7.0)">1665</text></g><path class="edge" d="M 0 0 V -1.22949 H -22.3543" /><circle class="sym" cx="0" cy="0" r="3" /><text class="lab rgt" transform="translate(3 -7.0)">3202</text></g><path class="edge" d="M 0 0 V -1.96007 H -31.6686" /><circle class="sym" cx="0" cy="0" r="3" /><text class="lab rgt" transform="translate(3 -7.0)">3552</text></g><g class="a4095 c2 node n1227 p0" transform="translate(-31.6686 9.09444)"><g class="a1227 i0 leaf node n0 p0 sample" transform="translate(-7.45143 4.41853)"><path class="edge" d="M 0 0 V -4.41853 H 7.45143" /><rect class="sym" height="6" width="6" x="-3" y="-3" /><text class="lab" transform="translate(0 11)">0</text></g><g class="a1227 i4 leaf node n9 p0 sample" transform="translate(7.45143 4.41853)"><path class="edge" d="M 0 0 V -4.41853 H -7.45143" /><rect class="sym" height="6" width="6" x="-3" y="-3" /><text class="lab" transform="translate(0 11)">9</text></g><path class="edge" d="M 0 0 V -9.09444 H 31.6686" /><circle class="sym" cx="0" cy="0" r="3" /><text class="lab lft" transform="translate(-3 -7.0)">1227</text></g><path class="edge" d="M 0 0 V -3.4617 H 40.0514" /><circle class="sym" cx="0" cy="0" r="3" /><text class="lab lft" transform="translate(-3 -7.0)">4095</text></g><g class="a4988 i3 leaf node n6 p0 sample" transform="translate(40.0514 16.9747)"><path class="edge" d="M 0 0 V -16.9747 H -40.0514" /><rect class="sym" height="6" width="6" x="-3" y="-3" /><text class="lab" transform="translate(0 11)">6</text></g><path class="edge" d="M 0 0 V -35.8872 H 27.4771" /><circle class="sym" cx="0" cy="0" r="3" /><text class="lab lft" transform="translate(-3 -7.0)">4988</text></g><path class="edge" d="M 0 0 V -12.3778 H 0" /><circle class="sym" cx="0" cy="0" r="3" /><text class="lab rgt" transform="translate(3 -7.0)">10306</text></g></g></g></g></g></svg>
